<svg width="527" height="428" viewBox="0 0 527 428" fill="none" xmlns="http://www.w3.org/2000/svg">
<rect width="527" height="428" fill="#FFFDF9"/>
<path d="M57.6981 300.154C60.4873 235.074 105.311 183.336 160.198 183.336C163.318 183.336 166.398 183.532 169.447 183.859C181.437 159.087 198.63 138.527 219.308 124.231C239.986 109.936 263.425 102.405 287.285 102.392C311.144 102.378 334.589 109.882 355.278 124.154C375.967 138.426 393.176 158.967 405.186 183.725C407.758 183.493 410.347 183.336 412.969 183.336C467.857 183.336 512.68 235.074 515.469 300.154" fill="#FFD5D8" fill-opacity="0.4"/>
<path d="M57.6981 300.154C60.4873 235.074 105.311 183.336 160.198 183.336C163.318 183.336 166.398 183.532 169.447 183.859C181.437 159.087 198.63 138.527 219.308 124.231C239.986 109.936 263.425 102.405 287.284 102.392C311.144 102.378 334.589 109.882 355.278 124.154C375.967 138.426 393.176 158.967 405.186 183.725C407.758 183.493 410.347 183.336 412.969 183.336C467.856 183.336 512.68 235.074 515.469 300.154" stroke="#FF6584" stroke-miterlimit="10"/>
<path d="M210.184 144.714C210.184 144.714 217.343 165.593 206.604 170.505C206.604 170.505 221.945 178.488 225.525 176.646C229.105 174.804 231.661 170.505 231.661 169.277C231.661 168.049 228.082 167.435 228.082 167.435C228.082 167.435 221.434 168.049 226.548 147.784L210.184 144.714Z" fill="#FBBEBE"/>
<path d="M218.366 155.767C225.426 155.767 231.15 148.894 231.15 140.415C231.15 131.937 225.426 125.063 218.366 125.063C211.305 125.063 205.582 131.937 205.582 140.415C205.582 148.894 211.305 155.767 218.366 155.767Z" fill="#FBBEBE"/>
<path d="M209.928 156.074C216.141 156.074 221.178 147.552 221.178 137.038C221.178 126.524 216.141 118.002 209.928 118.002C203.715 118.002 198.678 126.524 198.678 137.038C198.678 147.552 203.715 156.074 209.928 156.074Z" fill="#FF6584"/>
<path d="M201.746 149.934C207.96 149.934 212.997 141.411 212.997 130.897C212.997 120.384 207.96 111.861 201.746 111.861C195.533 111.861 190.496 120.384 190.496 130.897C190.496 141.411 195.533 149.934 201.746 149.934Z" fill="#FF6584"/>
<path d="M190.496 126.599C193.603 126.599 196.121 122.337 196.121 117.08C196.121 111.824 193.603 107.562 190.496 107.562C187.39 107.562 184.871 111.824 184.871 117.08C184.871 122.337 187.39 126.599 190.496 126.599Z" fill="#FF6584"/>
<path d="M231.15 166.821C231.15 166.821 234.218 159.452 245.468 155.767C256.718 152.083 278.707 107.869 278.707 107.869C278.707 107.869 277.684 81.4638 282.798 89.4468C287.911 97.4299 283.821 113.396 283.821 113.396L270.625 140.766C268.163 145.874 265.083 150.516 261.486 154.537C253.328 163.656 238.751 179.717 237.286 179.717C235.241 179.717 231.15 166.821 231.15 166.821Z" fill="#FBBEBE"/>
<path d="M213.252 271.829C213.252 271.829 216.832 324.025 215.809 328.938C214.786 333.851 211.718 343.676 216.832 372.538C221.945 401.4 215.809 399.557 215.809 399.557L232.173 408.154C232.173 408.154 226.548 374.994 227.57 365.783C228.593 356.572 228.082 337.535 231.15 324.639C234.218 311.744 234.73 275.513 234.73 275.513L213.252 271.829Z" fill="#FBBEBE"/>
<path opacity="0.1" d="M213.252 271.829C213.252 271.829 216.832 324.025 215.809 328.938C214.786 333.851 211.718 343.676 216.832 372.538C221.945 401.4 215.809 399.557 215.809 399.557L232.173 408.154C232.173 408.154 226.548 374.994 227.57 365.783C228.593 356.572 228.082 337.535 231.15 324.639C234.218 311.744 234.73 275.513 234.73 275.513L213.252 271.829Z" fill="black"/>
<path d="M231.536 401.511C230.268 402.568 227.011 403.641 220.923 395.873C220.923 395.873 217.343 389.732 214.275 395.873C211.207 402.014 213.252 402.628 215.298 405.698C217.272 408.662 233.066 428.793 239.679 427.976C239.909 427.949 240.135 427.891 240.355 427.805C246.491 425.349 237.798 417.366 237.798 417.366C237.798 417.366 232.098 406.836 232.066 401.864C232.068 401.789 232.052 401.715 232.021 401.649C231.99 401.584 231.945 401.53 231.89 401.494C231.836 401.457 231.774 401.44 231.711 401.443C231.649 401.446 231.588 401.469 231.536 401.511Z" fill="#3F3D56"/>
<path d="M200.979 265.688C200.979 265.688 192.286 289.637 188.707 301.918C186.827 308.366 181.143 310.413 176.166 310.904C170.013 311.479 164.035 313.642 158.642 317.245C151.485 322.07 141.718 327.544 135.525 326.482C124.786 324.639 133.479 344.904 133.479 344.904C133.479 344.904 149.332 333.237 164.161 332.008C178.991 330.78 194.843 328.938 202.002 317.885C209.161 306.831 226.548 271.829 226.548 271.829L200.979 265.688Z" fill="#FBBEBE"/>
<path d="M133.991 341.834C133.991 341.834 128.877 337.535 132.968 333.237C137.059 328.938 138.593 325.254 138.593 325.254C138.593 325.254 131.434 316.042 128.877 320.955C126.32 325.868 115.07 347.975 117.627 354.729C120.184 361.484 122.741 363.327 125.809 355.958C128.877 348.589 136.615 342.787 136.615 342.787L133.991 341.834Z" fill="#3F3D56"/>
<path d="M229.105 169.891C229.105 169.891 227.405 173.974 211.607 170.043C209.525 169.492 207.349 169.78 205.416 170.862C203.484 171.945 201.902 173.762 200.916 176.032C198.934 180.791 198.678 187.7 205.582 196.297C205.582 196.297 217.854 212.877 211.718 219.632C205.582 226.387 240.866 215.333 240.866 215.333C240.866 215.333 236.264 211.649 240.355 200.595C243.569 191.91 243.311 187.017 240.82 183.233C239.317 180.879 238.294 178.135 237.834 175.22C237.136 171.11 235.411 165.958 231.15 165.593C231.15 165.593 226.671 165.278 226.354 166.663C226.036 168.049 230.127 169.277 229.105 169.891Z" fill="#575988"/>
<path d="M210.408 182.918C210.303 182.052 210.173 181.192 210.083 180.323C209.774 177.359 208.6 170.175 204.539 171.411C199.445 172.962 193.82 188.314 193.82 188.314C193.82 188.314 189.218 205.508 182.57 209.806C175.923 214.105 157.513 236.212 157.513 236.212C157.513 236.212 142.172 241.125 147.797 246.037C153.422 250.95 160.582 242.967 160.582 242.967L178.668 229.935C184.994 225.366 190.433 219.225 194.62 211.924C198.388 205.371 203.107 197.797 206.096 195.295C207.907 193.841 209.266 191.707 209.961 189.228C210.507 187.193 210.66 185.035 210.408 182.918Z" fill="#FBBEBE"/>
<path d="M214.786 218.404C214.786 218.404 191.264 214.719 177.968 233.756C164.673 252.792 154.957 247.265 155.979 250.336C157.002 253.406 206.093 289.637 234.73 285.338C252.163 282.721 261.447 280.332 266.043 278.863C268.016 278.254 269.755 276.853 270.973 274.892C271.655 273.807 272.5 272.885 273.465 272.174C273.961 271.783 274.386 271.276 274.716 270.684C275.045 270.092 275.272 269.427 275.383 268.727C275.494 268.028 275.487 267.308 275.362 266.612C275.237 265.916 274.997 265.257 274.656 264.675C266.546 250.584 244.528 213.259 238.309 212.263C230.639 211.035 214.786 218.404 214.786 218.404Z" fill="#575988"/>
<path d="M218.622 130.897C223.14 130.897 226.803 127.735 226.803 123.835C226.803 119.935 223.14 116.773 218.622 116.773C214.103 116.773 210.44 119.935 210.44 123.835C210.44 127.735 214.103 130.897 218.622 130.897Z" fill="#FF6584"/>
<path d="M381.909 60.9095C382.43 57.6692 383.143 54.4774 384.041 51.3584C384.966 48.3233 386.135 45.734 387.438 45.734C390.597 45.734 376.38 29.61 376.38 29.61C376.38 29.61 375.488 31.6018 374.011 34.286C372.919 36.29 371.738 38.2214 370.472 40.0716C368.787 42.6288 366.784 44.8586 364.533 46.6825C358.214 51.4248 381.909 60.9095 381.909 60.9095Z" fill="#A0616A"/>
<path d="M423.737 123.782C423.737 123.782 455.41 147.812 445.651 151.761C435.892 155.71 419.724 127.478 419.724 127.478L423.737 123.782Z" fill="#A0616A"/>
<path d="M381.255 69.1978C381.255 69.1978 396.424 82.481 400.857 92.5855C405.29 102.69 428.338 125.144 428.338 125.144C428.338 125.144 423.58 136.434 421.279 135.753C418.979 135.072 371.549 92.6996 366.559 89.2685C361.569 85.8373 369.174 64.6441 381.255 69.1978Z" fill="#575988"/>
<path opacity="0.1" d="M381.255 69.1978C381.255 69.1978 396.424 82.481 400.857 92.5855C405.29 102.69 428.338 125.144 428.338 125.144C428.338 125.144 423.58 136.434 421.279 135.753C418.979 135.072 371.549 92.6996 366.559 89.2685C361.569 85.8373 369.174 64.6441 381.255 69.1978Z" fill="black"/>
<path d="M426.139 93.1575C426.139 93.1575 461.681 107.385 452.993 114.024C444.305 120.663 422.98 97.8998 422.98 97.8998L426.139 93.1575Z" fill="#A0616A"/>
<path d="M403.234 287.594C403.234 287.594 418.241 280.006 416.661 291.388C415.082 302.769 407.973 313.202 407.973 318.893C407.973 324.584 394.546 336.914 392.177 334.069C389.807 331.223 396.126 319.842 394.546 313.202C392.967 306.563 391.387 291.388 391.387 291.388L403.234 287.594Z" fill="#55536E"/>
<path opacity="0.1" d="M403.234 287.594C403.234 287.594 418.241 280.006 416.661 291.388C415.082 302.769 407.973 313.202 407.973 318.893C407.973 324.584 394.546 336.914 392.177 334.069C389.807 331.223 396.126 319.842 394.546 313.202C392.967 306.563 391.387 291.388 391.387 291.388L403.234 287.594Z" fill="black"/>
<path d="M398.495 296.13C398.495 296.13 413.502 288.542 411.922 299.924C410.343 311.306 403.234 321.739 403.234 327.43C403.234 333.12 389.807 345.45 387.438 342.605C385.068 339.76 391.387 328.378 389.807 321.739C388.228 315.099 386.648 299.924 386.648 299.924L398.495 296.13Z" fill="#55536E"/>
<path d="M363.743 226.892C363.743 226.892 410.343 280.006 408.763 284.748C407.183 289.491 396.916 299.924 396.916 299.924C396.916 299.924 361.374 243.964 363.743 226.892Z" fill="#3F3D56"/>
<path opacity="0.1" d="M363.743 226.892C363.743 226.892 410.343 280.006 408.763 284.748C407.183 289.491 396.916 299.924 396.916 299.924C396.916 299.924 361.374 243.964 363.743 226.892Z" fill="black"/>
<path d="M352.686 131.096C352.686 131.096 364.533 145.323 361.374 172.829C358.214 200.335 363.743 226.892 370.062 235.428C376.38 243.964 402.444 293.285 402.444 293.285C402.444 293.285 391.387 315.099 382.699 303.718C374.011 292.336 347.947 245.861 347.947 245.861C347.947 245.861 324.252 189.901 321.882 174.726C319.513 159.55 318.723 135.839 325.042 131.096C331.36 126.354 352.686 131.096 352.686 131.096Z" fill="#3F3D56"/>
<path opacity="0.1" d="M372.273 37.2832C381.498 39.5785 380.582 40.0242 386.253 42.4144C386.285 42.3006 386.316 42.2058 386.348 42.1109C387.217 39.6259 387.762 42.8887 389.017 42.8887C392.177 42.8887 377.96 26.7647 377.96 26.7647C377.96 26.7647 377.423 27.9597 376.499 29.7523C376.222 30.274 375.922 30.8431 375.59 31.4406C375.314 31.9433 375.014 32.4745 374.698 33.0246L372.273 37.2832Z" fill="black"/>
<path d="M389.017 50.4764C397.305 50.4764 404.024 42.4081 404.024 32.4554C404.024 22.5028 397.305 14.4345 389.017 14.4345C380.73 14.4345 374.011 22.5028 374.011 32.4554C374.011 42.4081 380.73 50.4764 389.017 50.4764Z" fill="#A0616A"/>
<path d="M361.374 45.734C361.374 45.734 384.279 48.5794 389.017 60.9095C393.756 73.2396 359.794 132.993 357.425 133.942C355.055 134.89 321.883 139.633 321.883 139.633C321.883 139.633 323.462 78.9305 354.265 56.1672C354.265 56.1672 361.374 52.3733 361.374 45.734Z" fill="#575988"/>
<path d="M374.011 52.3733C374.011 52.3733 391.387 60.9095 397.706 69.4458C404.024 77.982 430.878 93.1575 430.878 93.1575C430.878 93.1575 428.509 105.488 426.139 105.488C423.77 105.488 369.272 77.982 363.743 76.085C358.214 74.1881 361.374 51.4248 374.011 52.3733Z" fill="#575988"/>
<path d="M387.833 34.8266C387.833 34.8266 391.782 30.0843 383.884 26.2904C383.884 26.2904 391.782 22.4965 393.361 16.8057C394.941 11.1149 400.47 1.6302 405.209 16.8057C409.948 31.9812 418.636 51.8991 390.202 51.8991C390.202 51.8991 383.094 53.796 383.094 46.2083C383.094 43.9996 383.522 41.8213 384.345 39.8457C385.167 37.8702 386.361 36.1518 387.833 34.8266Z" fill="#3F3D56"/>
<g clip-path="url(#clip0)">
<rect width="84.6848" height="67.0201" transform="translate(241.677 25.5473)" fill="white"/>
<path d="M291.841 64.7247C288.934 58.8051 291.259 53.6618 295.328 50.0711C300.947 47.451 306.468 48.6155 310.537 53.8558C313.192 52.3015 316.572 51.965 319.353 52.5943C321.498 44.5003 319.489 34.7962 312.329 29.5647C303.015 22.7598 289.958 24.8068 283.165 34.137C273.851 27.332 260.794 29.3791 254.001 38.7093C247.208 48.0394 249.252 61.1195 258.565 67.9245L292.293 92.5674L301.237 80.1546L291.841 64.7247Z" fill="url(#paint0_linear)"/>
<path d="M310.665 54.6657C309.974 53.4804 309.057 52.443 307.965 51.6128C306.874 50.7827 305.63 50.176 304.305 49.8275C302.98 49.479 301.599 49.3955 300.241 49.5817C298.884 49.7679 297.576 50.2203 296.393 50.9129C295.21 51.6055 294.175 52.5247 293.346 53.6182C292.518 54.7117 291.913 55.9579 291.565 57.2857C291.218 58.6135 291.135 59.9969 291.322 61.3568C291.508 62.7167 291.96 64.0265 292.652 65.2114L303.179 83.2565L321.192 72.7108C322.375 72.0184 323.41 71.0993 324.238 70.0062C325.066 68.913 325.672 67.6672 326.019 66.3397C326.367 65.0123 326.45 63.6292 326.264 62.2696C326.078 60.9099 325.626 59.6003 324.935 58.4154C324.244 57.2306 323.327 56.1937 322.235 55.364C321.144 54.5344 319.9 53.9281 318.575 53.5799C317.25 53.2317 315.87 53.1484 314.512 53.3347C313.155 53.521 311.848 53.9733 310.665 54.6657Z" fill="url(#paint1_linear)"/>
<path d="M310.578 54.9977C309.247 52.716 307.066 51.0574 304.514 50.3868C301.962 49.7163 299.249 50.0887 296.971 51.4222C294.693 52.7557 293.037 54.941 292.368 57.4974C291.699 60.0537 292.07 62.7718 293.402 65.0535L303.44 82.2604L320.616 72.2046C321.744 71.5443 322.731 70.668 323.521 69.6256C324.31 68.5832 324.888 67.3952 325.219 66.1294C325.55 64.8637 325.63 63.5449 325.452 62.2484C325.275 60.9519 324.845 59.7031 324.185 58.5733C323.526 57.4435 322.652 56.4547 321.611 55.6636C320.57 54.8725 319.385 54.2944 318.121 53.9624C316.857 53.6303 315.541 53.5509 314.247 53.7285C312.953 53.9062 311.706 54.3375 310.578 54.9977Z" fill="#E53935"/>
<path opacity="0.2" d="M320.435 72.2955C322.709 70.9642 324.363 68.7837 325.034 66.2323C325.706 63.6809 325.34 60.9669 324.016 58.6856C322.693 56.4042 320.52 54.7418 317.975 54.063C315.43 53.3842 312.72 53.7444 310.439 55.0645L320.329 72.3574L320.435 72.2955Z" fill="black"/>
<path d="M318.679 52.1477C315.925 51.5208 313.036 51.9681 310.6 53.3987C309.108 50.8422 306.663 48.984 303.804 48.2329C300.944 47.4818 297.904 47.8992 295.352 49.3934C292.799 50.8876 290.944 53.3362 290.194 56.2006C289.443 59.065 289.859 62.1107 291.35 64.6678L300.195 79.829L291.993 91.0954L275.151 78.7899L276.57 77.9598C279.35 76.3323 281.407 73.7057 282.324 70.6136C283.24 67.5215 282.948 64.1958 281.505 61.3121C280.062 58.4284 277.578 56.203 274.556 55.088C271.535 53.973 268.203 54.0519 265.238 55.3089C264.738 55.5217 264.251 55.7661 263.782 56.0407C262.56 53.9452 260.764 52.2445 258.607 51.14C256.45 50.0356 254.022 49.5738 251.611 49.8093C251.689 48.8011 251.844 47.8003 252.074 46.8154C252.099 46.7063 252.126 46.5963 252.154 46.4863C252.262 46.0545 252.386 45.625 252.524 45.198C252.535 45.1653 252.545 45.1317 252.557 45.0989C252.619 44.9098 252.685 44.7207 252.753 44.5325C252.832 44.318 252.914 44.1034 253 43.8906C253.043 43.7843 253.087 43.6779 253.132 43.5724C253.175 43.4697 253.22 43.367 253.265 43.2642C253.267 43.2611 253.268 43.2581 253.27 43.2551C253.316 43.1497 253.364 43.0451 253.413 42.9406C253.419 42.9278 253.424 42.9151 253.431 42.9033C253.474 42.8106 253.518 42.7187 253.563 42.6269C253.614 42.5224 253.666 42.4187 253.718 42.3151C253.83 42.0941 253.947 41.8759 254.069 41.6577C254.112 41.5777 254.157 41.4986 254.204 41.4195C254.258 41.3241 254.314 41.2286 254.371 41.1341C254.397 41.0904 254.423 41.0459 254.451 41.0022C254.599 40.7577 254.753 40.5155 254.913 40.2758C254.951 40.2194 254.989 40.1631 255.028 40.1067C255.08 40.0294 255.134 39.9521 255.188 39.8758C255.252 39.7849 255.316 39.6939 255.383 39.603C261.877 30.6832 274.361 28.7258 283.265 35.2318C289.759 26.3119 302.243 24.3545 311.148 30.8605C314.398 33.2354 316.856 36.5386 318.2 40.3372C319.544 44.1358 319.711 48.2525 318.679 52.1477Z" fill="#575988"/>
<path d="M262.619 57.8418C261.114 55.2657 258.65 53.3936 255.768 52.637C252.886 51.8804 249.822 52.3014 247.25 53.8073C244.678 55.3132 242.808 57.7807 242.051 60.6674C241.295 63.5541 241.713 66.6237 243.215 69.2012L254.555 88.6387L273.958 77.2793C276.53 75.7722 278.399 73.3038 279.154 70.4167C279.909 67.5295 279.489 64.4601 277.986 61.8832C276.483 59.3064 274.019 57.433 271.138 56.6752C268.256 55.9173 265.192 56.3369 262.619 57.8418Z" fill="#E53935"/>
<path opacity="0.2" d="M283.298 35.2372L265.238 55.3088C264.738 55.5217 264.251 55.7661 263.782 56.0407C262.56 53.9452 260.764 52.2445 258.607 51.14C256.45 50.0356 254.022 49.5738 251.611 49.8093C251.689 48.8011 251.844 47.8002 252.074 46.8154C252.099 46.7063 252.126 46.5963 252.154 46.4863C252.262 46.0545 252.385 45.625 252.524 45.198C252.535 45.1653 252.545 45.1317 252.557 45.0989C252.619 44.9098 252.685 44.721 252.753 44.5325C252.832 44.318 252.913 44.1034 253 43.8906C253.043 43.7843 253.087 43.6779 253.132 43.5724C253.175 43.4697 253.22 43.367 253.265 43.2642C253.267 43.2611 253.268 43.2581 253.27 43.2551C253.316 43.1497 253.364 43.0451 253.413 42.9406C253.419 42.9278 253.424 42.9151 253.431 42.9033C253.474 42.8106 253.518 42.7187 253.563 42.6269C253.614 42.5223 253.666 42.4187 253.718 42.3151C253.83 42.0941 253.947 41.8759 254.069 41.6577C254.112 41.5777 254.157 41.4986 254.204 41.4195C254.258 41.3241 254.314 41.2286 254.371 41.1341C254.397 41.0904 254.423 41.0459 254.451 41.0022C254.599 40.7577 254.753 40.5155 254.913 40.2758C254.951 40.2194 254.989 40.1631 255.028 40.1067C255.08 40.0294 255.134 39.9521 255.188 39.8758C255.252 39.7849 255.316 39.6939 255.383 39.603C261.877 30.6832 274.361 28.7258 283.265 35.2318C283.274 35.2208 283.282 35.209 283.291 35.1981L283.298 35.2372Z" fill="black"/>
</g>
<defs>
<linearGradient id="paint0_linear" x1="285.079" y1="92.5674" x2="285.079" y2="25.5473" gradientUnits="userSpaceOnUse">
<stop stop-color="#808080" stop-opacity="0.25"/>
<stop offset="0.53514" stop-color="#808080" stop-opacity="0.12"/>
<stop offset="1" stop-color="#808080" stop-opacity="0.1"/>
</linearGradient>
<linearGradient id="paint1_linear" x1="30963.7" y1="24235.5" x2="30963.7" y2="11691.5" gradientUnits="userSpaceOnUse">
<stop stop-color="#808080" stop-opacity="0.25"/>
<stop offset="0.53514" stop-color="#808080" stop-opacity="0.12"/>
<stop offset="1" stop-color="#808080" stop-opacity="0.1"/>
</linearGradient>
<clipPath id="clip0">
<rect width="84.6848" height="67.0201" fill="white" transform="translate(241.677 25.5473)"/>
</clipPath>
</defs>
</svg>
