<svg width="617" height="582" viewBox="0 0 617 582" fill="none" xmlns="http://www.w3.org/2000/svg">
<g filter="url(#filter0_b)">
<rect width="617" height="582" fill="#FFFDF9"/>
<ellipse cx="316.594" cy="215.066" rx="206.977" ry="184.308" fill="#FFE3ED" fill-opacity="0.7"/>
<path opacity="0.05" d="M617 534.481H0V542.327H617V534.481Z" fill="#FFFDF9"/>
<path opacity="0.05" d="M617 552.786H0V560.632H617V552.786Z" fill="#FFFDF9"/>
<g opacity="0.5">
<path opacity="0.5" d="M523.53 159.731C521.84 158.566 519.77 158.026 517.7 158.211C515.631 158.397 513.699 159.294 512.261 160.739C510.706 162.37 509.873 164.519 509.938 166.732C510.004 168.945 510.962 171.046 512.61 172.588L523.379 182.902C523.717 183.227 524.175 183.41 524.652 183.41C525.13 183.41 525.588 183.227 525.925 182.902L536.631 172.527C538.27 170.976 539.217 168.871 539.271 166.659C539.324 164.446 538.48 162.301 536.917 160.678C535.473 159.24 533.54 158.352 531.471 158.177C529.403 158.001 527.338 158.55 525.656 159.723C525.347 159.938 524.975 160.055 524.594 160.056C524.213 160.057 523.841 159.944 523.53 159.731V159.731Z" fill="#F55F44"/>
<path opacity="0.5" d="M524.728 182.497C524.604 182.719 524.539 182.967 524.539 183.219C524.539 183.471 524.604 183.719 524.728 183.941C524.88 184.158 525.02 184.382 525.148 184.613C525.425 185.278 524.942 186.004 524.45 186.546C524.141 186.89 523.8 187.348 523.998 187.769C524.095 187.92 524.219 188.054 524.363 188.166C524.692 188.471 524.934 188.853 525.065 189.274C525.196 189.696 525.211 190.142 525.11 190.571C525.008 191 524.794 191.397 524.486 191.722C524.179 192.048 523.789 192.291 523.356 192.429" stroke="#F55F44" stroke-miterlimit="10"/>
</g>
<g opacity="0.5">
<path opacity="0.5" d="M63.5558 216.265C61.8653 215.099 59.7956 214.56 57.7259 214.745C55.6562 214.93 53.7251 215.828 52.2864 217.273C50.7321 218.903 49.899 221.053 49.9641 223.266C50.0293 225.479 50.9876 227.579 52.6353 229.122L63.4051 239.436C63.7427 239.761 64.2005 239.944 64.6779 239.944C65.1553 239.944 65.6132 239.761 65.9508 239.436L76.6571 229.061C78.2961 227.51 79.2428 225.405 79.2961 223.192C79.3494 220.98 78.5051 218.834 76.9426 217.212C75.499 215.774 73.5654 214.886 71.4968 214.71C69.4282 214.535 67.3634 215.084 65.6812 216.257C65.3721 216.472 65.001 216.588 64.6197 216.59C64.2385 216.591 63.8664 216.477 63.5558 216.265Z" fill="#F55F44"/>
<path opacity="0.5" d="M64.7533 239.031C64.6297 239.253 64.565 239.501 64.565 239.753C64.565 240.005 64.6297 240.253 64.7533 240.475C64.9055 240.692 65.0458 240.916 65.1736 241.147C65.4512 241.812 64.9674 242.538 64.4757 243.08C64.1664 243.424 63.8254 243.882 64.0237 244.302C64.1212 244.454 64.2445 244.588 64.3885 244.7C64.7177 245.004 64.9595 245.386 65.0904 245.808C65.2212 246.229 65.2367 246.676 65.1354 247.105C65.034 247.534 64.8192 247.931 64.5119 248.256C64.2045 248.582 63.8151 248.825 63.3813 248.963" stroke="#F55F44" stroke-miterlimit="10"/>
</g>
<g opacity="0.5">
<path opacity="0.5" d="M364.918 1.5889C363.228 0.423685 361.158 -0.115736 359.088 0.0694719C357.019 0.25468 355.088 1.15211 353.649 2.59734C352.095 4.22761 351.261 6.37752 351.327 8.59016C351.392 10.8028 352.35 12.9037 353.998 14.4465L364.768 24.7601C365.105 25.0853 365.563 25.2679 366.04 25.2679C366.518 25.2679 366.976 25.0853 367.313 24.7601L378.02 14.3854C379.659 12.8345 380.605 10.7292 380.659 8.51662C380.712 6.30407 379.868 4.15867 378.305 2.53622C376.861 1.09826 374.928 0.210073 372.859 0.0346575C370.791 -0.140758 368.726 0.408364 367.044 1.58126C366.735 1.79633 366.363 1.91273 365.982 1.9141C365.601 1.91547 365.229 1.80174 364.918 1.5889V1.5889Z" fill="#F55F44"/>
<path opacity="0.5" d="M366.116 24.3553C365.992 24.5774 365.928 24.8254 365.928 25.0773C365.928 25.3292 365.992 25.5772 366.116 25.7992C366.268 26.0161 366.408 26.2405 366.536 26.4715C366.814 27.1362 366.33 27.862 365.838 28.4044C365.529 28.7482 365.188 29.1684 365.386 29.6267C365.484 29.778 365.607 29.9123 365.751 30.024C366.08 30.3289 366.322 30.7107 366.453 31.1322C366.584 31.5537 366.599 32.0007 366.498 32.4297C366.397 32.8586 366.182 33.2551 365.874 33.5805C365.567 33.906 365.178 34.1493 364.744 34.287" stroke="#F55F44" stroke-miterlimit="10"/>
</g>
<g opacity="0.5">
<path opacity="0.5" d="M440.148 107.857H437.769V120.845H440.148V107.857Z" fill="#47E6B1"/>
<path opacity="0.5" d="M445.699 115.497V113.205H432.217V115.497H445.699Z" fill="#47E6B1"/>
</g>
<g opacity="0.5">
<path opacity="0.5" d="M165.749 307.253H163.37V320.241H165.749V307.253Z" fill="#47E6B1"/>
<path opacity="0.5" d="M171.301 314.893V312.601H157.819V314.893H171.301Z" fill="#47E6B1"/>
</g>
<g opacity="0.5">
<path opacity="0.5" d="M103.891 91.8139H101.512V104.801H103.891V91.8139Z" fill="#47E6B1"/>
<path opacity="0.5" d="M109.442 99.4536V97.1617H95.9601V99.4536H109.442Z" fill="#47E6B1"/>
</g>
<g opacity="0.5">
<path opacity="0.5" d="M526.591 292.738H524.212V305.725H526.591V292.738Z" fill="#47E6B1"/>
<path opacity="0.5" d="M532.143 300.378V298.086H518.661V300.378H532.143Z" fill="#47E6B1"/>
</g>
<path opacity="0.5" d="M434.668 200C434.02 199.718 433.501 199.217 433.209 198.593C432.917 197.968 432.872 197.262 433.082 196.608C433.122 196.508 433.143 196.402 433.145 196.294V196.294C433.175 195.984 433.097 195.674 432.924 195.411C432.751 195.148 432.492 194.948 432.188 194.843C431.884 194.737 431.552 194.731 431.245 194.827C430.937 194.922 430.671 195.113 430.488 195.37V195.37C430.426 195.456 430.373 195.549 430.33 195.645C430.037 196.269 429.517 196.769 428.869 197.05C428.221 197.332 427.488 197.375 426.809 197.173C426.703 197.141 426.594 197.12 426.483 197.112V197.112C426.17 197.092 425.858 197.171 425.594 197.336C425.33 197.501 425.129 197.744 425.02 198.029C424.912 198.313 424.901 198.623 424.99 198.914C425.08 199.204 425.264 199.459 425.516 199.641V199.641C425.605 199.702 425.701 199.753 425.801 199.793C426.451 200.074 426.97 200.575 427.263 201.2C427.555 201.825 427.599 202.531 427.388 203.186C427.355 203.287 427.334 203.392 427.324 203.499C427.304 203.801 427.386 204.102 427.557 204.356C427.728 204.61 427.98 204.803 428.276 204.908C428.571 205.013 428.893 205.023 429.195 204.937C429.496 204.851 429.761 204.673 429.949 204.431V204.431C430.014 204.346 430.068 204.254 430.108 204.156C430.395 203.524 430.913 203.016 431.563 202.727C432.214 202.438 432.951 202.39 433.637 202.59C433.74 202.622 433.846 202.642 433.954 202.651V202.651C434.268 202.67 434.58 202.592 434.843 202.426C435.107 202.261 435.308 202.018 435.417 201.734C435.526 201.45 435.536 201.139 435.447 200.849C435.358 200.558 435.173 200.303 434.922 200.122V200.122C434.842 200.072 434.757 200.031 434.668 200Z" fill="#4D8AF0"/>
<path opacity="0.5" d="M145.201 170.969C144.553 170.687 144.034 170.186 143.742 169.562C143.45 168.937 143.405 168.231 143.615 167.577C143.655 167.477 143.677 167.371 143.679 167.264V167.264C143.708 166.954 143.631 166.643 143.457 166.38C143.284 166.117 143.025 165.917 142.721 165.812C142.417 165.706 142.086 165.7 141.778 165.796C141.47 165.891 141.204 166.082 141.022 166.339V166.339C140.96 166.426 140.906 166.518 140.863 166.614C140.57 167.238 140.051 167.738 139.402 168.019C138.754 168.301 138.021 168.344 137.342 168.142C137.236 168.11 137.127 168.09 137.017 168.081V168.081C136.703 168.062 136.391 168.14 136.127 168.305C135.864 168.471 135.662 168.713 135.554 168.998C135.445 169.282 135.434 169.592 135.524 169.883C135.613 170.173 135.797 170.428 136.049 170.61C136.138 170.671 136.234 170.722 136.335 170.763C136.991 171.037 137.52 171.534 137.82 172.16C138.12 172.785 138.17 173.496 137.961 174.155C137.928 174.257 137.907 174.362 137.897 174.468C137.877 174.77 137.959 175.071 138.13 175.325C138.302 175.579 138.554 175.772 138.849 175.877C139.144 175.982 139.466 175.992 139.768 175.906C140.069 175.82 140.334 175.643 140.522 175.4V175.4C140.587 175.315 140.641 175.223 140.681 175.125C140.968 174.493 141.486 173.985 142.137 173.696C142.787 173.407 143.525 173.359 144.21 173.559C144.313 173.591 144.419 173.611 144.527 173.62C144.841 173.639 145.153 173.561 145.417 173.395C145.68 173.23 145.881 172.987 145.99 172.703C146.099 172.419 146.109 172.108 146.02 171.818C145.931 171.527 145.747 171.272 145.495 171.091V171.091C145.403 171.038 145.304 170.997 145.201 170.969V170.969Z" fill="#4D8AF0"/>
<path opacity="0.5" d="M259.402 21.9947C258.754 21.7125 258.235 21.2122 257.943 20.5876C257.651 19.963 257.606 19.2572 257.816 18.6027C257.856 18.5027 257.877 18.3967 257.879 18.2895V18.2895C257.909 17.9795 257.831 17.6688 257.658 17.406C257.485 17.1432 257.226 16.9433 256.922 16.8375C256.618 16.7318 256.286 16.7262 255.979 16.8217C255.671 16.9171 255.405 17.1083 255.222 17.3651V17.3651C255.16 17.4514 255.107 17.5436 255.064 17.6401C254.778 18.2713 254.261 18.7794 253.612 19.0681C252.963 19.3568 252.227 19.4059 251.542 19.2062C251.437 19.1742 251.328 19.1536 251.217 19.1451V19.1451C250.904 19.1256 250.591 19.2043 250.328 19.3695C250.064 19.5347 249.863 19.7775 249.754 20.0617C249.645 20.346 249.635 20.6565 249.724 20.947C249.814 21.2375 249.998 21.4925 250.25 21.6738V21.6738C250.339 21.735 250.434 21.7863 250.535 21.8266C251.192 22.1007 251.72 22.5981 252.02 23.2238C252.32 23.8495 252.37 24.5596 252.161 25.2187C252.129 25.3206 252.107 25.4256 252.098 25.5319V25.5319C252.077 25.8342 252.159 26.1348 252.331 26.3888C252.502 26.6427 252.754 26.8365 253.049 26.9413C253.344 27.0461 253.667 27.0562 253.968 26.9702C254.27 26.8842 254.534 26.7066 254.723 26.4639V26.4639C254.788 26.3793 254.841 26.2869 254.881 26.1889C255.169 25.5571 255.687 25.0488 256.337 24.7602C256.987 24.4716 257.725 24.4227 258.41 24.6228C258.513 24.6548 258.62 24.6754 258.728 24.6839V24.6839C259.041 24.7034 259.353 24.6247 259.617 24.4595C259.881 24.2943 260.082 24.0515 260.191 23.7672C260.299 23.483 260.31 23.1724 260.221 22.882C260.131 22.5915 259.947 22.3365 259.695 22.1551V22.1551C259.605 22.0892 259.507 22.0352 259.402 21.9947V21.9947Z" fill="#4D8AF0"/>
<path d="M448.459 468.169L409.869 439.619C409.869 439.619 406.76 427.732 405.515 419.404C404.27 411.077 402.398 375.4 402.398 375.4C403.285 372.311 403.871 369.15 404.151 365.957C404.531 365.881 404.944 365.789 405.301 365.69C408.187 364.983 410.863 363.64 413.119 361.766C415.375 359.893 417.148 357.541 418.299 354.895C422.264 345.391 417.141 334.16 410.654 326.628C404.167 319.095 395.998 313.044 391.731 303.709C386.466 292.211 388.266 278.299 385.577 265.709C385.32 263.946 384.642 262.264 383.595 260.796C381.921 258.802 379.312 258.375 376.988 257.58C369.629 255.059 364.109 248.176 359.803 240.987C352.832 229.336 345.615 211.612 331.253 210.604C325.916 210.229 320.348 211.963 314.948 211.948C306.581 211.948 298.293 212.047 289.998 213.155C287.032 213.545 283.963 214.08 281.488 215.959C272.995 222.438 276.841 239.543 268.657 246.518C266.222 248.581 263.105 249.329 260.353 250.75C249.98 256.098 245.372 270.361 245.983 283.188C246.277 289.208 247.569 295.465 251.257 299.858C254.183 303.372 258.339 305.389 261.067 309.102C265.453 315.077 264.858 323.014 264.382 331.082C258.513 333.45 253.803 336.17 252.32 339.096C247.292 348.928 247.942 382.543 247.942 382.543C247.942 382.543 249.806 437.549 235.483 444.424L181.936 480.102C181.936 480.102 143.948 448.29 134.606 467.023C128.222 479.834 151.538 487.084 166.923 490.385C157.224 497.016 151.855 509.27 156.399 517.567C163.537 530.654 183.49 539.569 183.49 539.569C183.49 539.569 259.584 543.106 294.756 535.512H295.335C310.268 538.118 331.697 540.86 348.882 539.21C349.216 539.974 349.446 540.463 349.446 540.463C349.446 540.463 459.681 549.386 479.594 513.113C489.809 494.503 479.15 485.916 466.335 481.958C480.681 480.858 497.018 476.992 498.898 465.235C502.324 443.783 448.459 468.169 448.459 468.169ZM437.356 479.544C417.181 486.618 400.812 487.016 392.088 486.488C387.806 477.489 369.946 438.519 369.478 412.429C369.597 406.608 370.668 401.52 373.087 397.7C378.273 389.472 379.812 383.016 379.637 378.119C379.637 377.76 379.637 377.401 379.637 377.05C379.663 375.554 379.514 374.06 379.193 372.596C380.046 374.613 380.299 376.819 379.923 378.967C378.059 388.181 383.04 447.946 383.04 447.946C383.04 447.946 387.084 461.331 395.491 465.189L437.356 479.544ZM239.821 475.304L259.188 463.409C259.188 463.409 268.22 459.245 269.156 449.138L275.54 400.832C275.972 402.903 276.542 404.944 277.246 406.944C278.372 410.114 278.832 414.759 278.927 420.29C278.681 447.251 269.156 491.981 269.156 491.981H269.267C269.267 492.111 269.22 492.218 269.204 492.302L268.53 492.34C252.867 491.882 216.362 490.568 195.933 487.841L239.821 475.304ZM206.053 503.456V503.548H201.294L206.053 503.456Z" fill="url(#paint0_linear)"/>
<path d="M358.32 245.838C362.476 252.851 367.837 259.589 374.974 262.011C377.219 262.775 379.733 263.211 381.319 265.159C382.336 266.591 382.995 268.23 383.246 269.949C385.839 282.218 384.102 295.779 389.194 307.001C393.318 316.085 401.209 321.998 407.482 329.325C413.755 336.651 418.672 347.606 414.873 356.866C413.767 359.438 412.056 361.728 409.875 363.555C407.694 365.382 405.102 366.696 402.303 367.393C397.053 368.768 391.573 368.195 386.244 367.286C379.217 366.087 372.064 364.23 366.211 359.646C356.084 351.716 351.801 337.491 346.503 324.832C344.013 318.904 340.706 312.693 335.234 310.577C328.969 308.147 321.919 312.204 317.85 318.155C313.782 324.107 311.982 331.586 310.007 338.782C307.786 346.911 304.979 355.345 299.134 360.663C296.602 363.041 293.409 364.662 289.941 365.329C286.473 365.997 282.879 365.681 279.593 364.421C273.09 361.816 267.951 355.208 266.452 347.545C264.152 335.742 269.672 321.57 262.891 312.235C260.258 308.621 256.237 306.65 253.414 303.227C249.885 298.941 248.6 292.837 248.323 286.978C247.728 274.464 252.177 260.521 262.209 255.342C264.89 253.959 267.88 253.233 270.235 251.216C278.166 244.425 274.422 227.747 282.63 221.421C285.01 219.58 287.992 219.068 290.862 218.679C298.904 217.609 306.89 217.487 314.971 217.51C320.198 217.51 325.582 215.829 330.737 216.196C344.616 217.197 351.587 234.478 358.32 245.838Z" fill="#965D7B"/>
<path d="M209.447 498.758L212.484 533.419L424.937 532.197L420.884 494.357L349.057 486.305L223.103 493.632L209.447 498.758Z" fill="#575988"/>
<path opacity="0.05" d="M209.447 498.758L212.484 533.419L424.937 532.197L420.884 494.357L349.057 486.305L223.103 493.632L209.447 498.758Z" fill="black"/>
<path d="M349.239 522.976L278.514 529.355C278.514 529.355 326.97 541.242 355.259 535.467L349.239 522.976Z" fill="#F7C4A7"/>
<path opacity="0.1" d="M349.239 522.976L278.514 529.355C278.514 529.355 326.97 541.242 355.259 535.467L349.239 522.976Z" fill="black"/>
<path d="M295.367 278.864C295.367 278.864 309.214 313.946 288.745 329.6C268.276 345.253 285.136 389.036 285.136 389.036L363.99 385.553C363.99 385.553 371.81 336.269 367.599 325.833C367.599 325.833 348.938 331.051 344.727 320.035C340.516 309.018 337.502 278.864 337.502 278.864H295.367Z" fill="#F7C4A7"/>
<path d="M277.309 491.088C277.309 491.088 210.795 489.636 191.238 484.976C171.681 480.316 154.821 502.685 161.744 515.473C168.668 528.262 187.915 536.926 187.915 536.926C187.915 536.926 286.937 541.563 308.302 528.522C308.302 528.522 316.431 506.199 308.302 501.852H205.077L281.211 500.4L277.309 491.088Z" fill="#575988"/>
<path d="M382.944 484.418C382.944 484.418 405.222 489.055 435.913 477.458C435.913 477.458 493.402 475.724 474.138 511.073C454.875 546.422 348.335 537.751 348.335 537.751C348.335 537.751 341.991 524.702 348.335 521.226C354.68 517.75 409.734 495.419 426.888 496.58L379.304 505.565L382.944 484.418Z" fill="#575988"/>
<path opacity="0.1" d="M340.23 295.74C339.08 287.482 338.406 280.751 338.406 280.751H296.271C298.217 286.067 299.568 291.569 300.3 297.161C306.208 301.146 313.305 303.164 320.513 302.908C327.72 302.651 334.644 300.134 340.23 295.74V295.74Z" fill="black"/>
<path d="M318.389 301.042C336.671 301.042 351.492 286.766 351.492 269.154C351.492 251.543 336.671 237.266 318.389 237.266C300.108 237.266 285.287 251.543 285.287 269.154C285.287 286.766 300.108 301.042 318.389 301.042Z" fill="#F7C4A7"/>
<path d="M298.975 324.672C298.975 324.672 259.251 331.922 254.437 341.479C249.623 351.037 250.226 383.811 250.226 383.811C250.226 383.811 252.026 437.442 238.187 444.111L186.416 478.902C186.416 478.902 149.706 447.885 140.673 466.144C131.64 484.403 184.014 491.08 184.014 491.08L242.399 474.273L261.059 462.676C261.059 462.676 269.783 458.619 270.687 448.756L278.514 389.036L309.817 380.335H360.374L367.147 361.709C367.147 361.709 379.637 371.351 377.829 380.335C376.021 389.319 380.843 447.564 380.843 447.564C380.843 447.564 384.753 460.605 392.882 464.372L439.831 480.606C439.831 480.606 489.484 485.243 492.799 464.372C496.114 443.5 444.042 467.343 444.042 467.343L406.697 439.481C406.697 439.481 403.691 427.884 402.485 419.763C401.28 411.642 399.48 376.859 399.48 376.859C399.48 376.859 410.916 340.326 377.805 333.954L335.068 321.196L298.975 324.672Z" fill="#F7C4A7"/>
<path opacity="0.1" d="M272.344 332.067L278.514 371.35C278.514 371.35 272.17 389.617 278.514 407.593C284.859 425.569 270.687 492.554 270.687 492.554C270.687 492.554 345.028 515.473 390.439 489.071C390.439 489.071 357.035 421.23 371.175 398.617C385.316 376.003 371.413 367.156 371.413 367.156L373.586 325.558L363.356 322.655L357.337 363.825C357.337 363.825 315.804 391.657 285.105 367.309L278.483 322.655L272.344 332.067Z" fill="black"/>
<path opacity="0.07" d="M315.281 378.723C312.063 373.774 307.048 370.156 301.213 368.576C295.377 366.995 289.14 367.565 283.717 370.174C293.797 377.47 304.915 379.418 315.281 378.723Z" fill="#FFFDF9"/>
<path opacity="0.07" d="M332.339 374.406C335.55 369.458 340.559 365.841 346.39 364.26C352.22 362.679 358.453 363.249 363.871 365.858C353.815 373.123 342.705 375.063 332.339 374.406Z" fill="#FFFDF9"/>
<path opacity="0.1" d="M272.344 332.067L278.514 369.318C278.514 369.318 272.17 387.585 278.514 405.561C284.859 423.537 270.687 490.507 270.687 490.507C270.687 490.507 345.028 513.426 390.439 487.031C390.439 487.031 357.035 419.19 371.175 396.577C385.316 373.963 371.413 365.116 371.413 365.116L373.586 323.511L363.356 320.615L357.337 361.786C357.337 361.786 315.804 389.617 285.105 365.262L278.483 320.615L272.344 332.067Z" fill="black"/>
<path d="M272.043 331.777L278.514 369.899C278.514 369.899 272.17 388.166 278.514 406.142C284.859 424.118 270.687 491.088 270.687 491.088C270.687 491.088 345.028 514.007 390.439 487.612C390.439 487.612 357.035 419.763 371.175 397.15C385.316 374.536 371.413 365.697 371.413 365.697L373.586 324.091L363.356 321.196L357.337 362.366C357.337 362.366 315.804 390.198 285.105 365.842L278.483 321.196L272.043 331.777Z" fill="#FC6681"/>
<path d="M302.592 505.29L318.239 503.25C318.239 503.25 336.297 480.927 349.239 498.032C349.239 498.032 354.656 509.049 361.278 511.073C365.806 512.394 370.436 513.365 375.125 513.976L348.335 521.226C348.335 521.226 336.598 527.896 324.258 526.154C316.994 525.084 309.571 525.681 302.592 527.896V505.29Z" fill="#F7C4A7"/>
<path opacity="0.1" d="M285.287 410.634C285.287 410.634 313.576 414.691 318.389 407.448Z" fill="black"/>
<path opacity="0.1" d="M338.858 405.997C338.858 405.997 344.275 411.214 365.941 407.448Z" fill="black"/>
<path opacity="0.1" d="M283.772 325.107C283.772 325.107 304.543 328.011 308.452 326.269Z" fill="black"/>
<path opacity="0.1" d="M329.524 325.107C329.524 325.107 350.294 328.011 354.204 326.269Z" fill="black"/>
<path opacity="0.1" d="M304.844 503.12C304.844 503.12 310.57 529.095 304.844 530.012C299.118 530.929 291.005 525.734 291.005 525.153C291.005 524.572 294.614 508.048 294.614 508.048L304.844 503.12Z" fill="black"/>
<path d="M304.249 503.12C304.249 503.12 309.967 529.095 304.249 530.012C298.531 530.929 290.402 525.734 290.402 525.153C290.402 524.572 294.011 508.048 294.011 508.048L304.249 503.12Z" fill="#575988"/>
<path opacity="0.1" d="M276.31 321.303C273.78 326.949 272.884 333.61 275.564 339.187C277.61 343.443 281.615 346.888 282.385 351.518C283.352 357.332 278.879 363.23 280.553 368.891C281.187 371.053 282.67 372.886 284.177 374.605C288.761 379.823 294.851 384.881 301.926 384.476C303.052 373.948 293.598 363.734 296.691 353.581C297.802 349.944 300.403 346.919 301.973 343.45C304.582 337.698 304.21 331.128 303.266 324.916C301.894 315.902 298.42 304.855 289.141 300.638C284.883 298.697 278.832 298.552 277.317 303.823C276.484 306.635 278.427 309.278 278.689 312.028C279.014 315.52 277.713 318.171 276.31 321.303Z" fill="black"/>
<path d="M276.31 320.44C273.78 326.085 272.884 332.739 275.564 338.324C277.61 342.572 281.615 346.025 282.385 350.647C283.352 356.461 278.879 362.359 280.553 368.02C281.187 370.182 282.67 372.023 284.177 373.742C288.761 378.952 294.851 384.009 301.926 383.605C303.052 373.077 293.598 362.863 296.691 352.71C297.802 349.073 300.403 346.048 301.973 342.579C304.582 336.827 304.21 330.257 303.266 324.045C301.894 315.031 298.42 303.984 289.141 299.766C284.883 297.826 278.832 297.688 277.317 302.952C276.484 305.764 278.427 308.407 278.689 311.157C279.014 314.649 277.713 317.3 276.31 320.44Z" fill="#965D7B"/>
<path opacity="0.1" d="M278.665 253.501C278.665 253.501 322.601 247.702 323.806 256.396C325.012 265.09 363.84 279.315 363.84 279.315L354.204 256.396L336.447 227.984C336.447 227.984 303.932 225.692 302.441 227.984C300.95 230.276 283.772 237.839 283.772 237.839L278.665 253.501Z" fill="black"/>
<path d="M278.665 252.92C278.665 252.92 322.601 247.121 323.806 255.815C325.012 264.509 363.84 278.734 363.84 278.734L354.204 255.815L336.447 227.403C336.447 227.403 303.932 225.111 302.441 227.403C300.95 229.695 283.772 237.259 283.772 237.259L278.665 252.92Z" fill="#965D7B"/>
<path opacity="0.1" d="M355.148 314.87C357.285 317.335 358.795 320.247 359.557 323.373C360.287 326.368 360.35 329.485 361.008 332.48C362.484 338.859 366.869 344.222 371.437 349.05C372.92 350.8 374.731 352.267 376.774 353.374C378.868 354.367 381.533 354.574 383.468 353.374C381.628 351.915 380.629 349.692 379.97 347.492C379.043 344.414 378.63 341.214 378.749 338.011C378.947 332.663 380.573 327.017 378.265 322.143C376.933 319.324 374.451 317.185 371.921 315.267C370.161 313.895 368.265 312.695 366.259 311.684C362.515 309.889 358.233 309.102 354.101 308.705C348.724 308.178 353.427 312.914 355.148 314.87Z" fill="black"/>
<path d="M355.148 314.007C357.287 316.467 358.798 319.377 359.557 322.502C360.287 325.497 360.35 328.614 361.008 331.609C362.484 337.988 366.869 343.351 371.437 348.179C372.92 349.929 374.731 351.396 376.774 352.503C378.868 353.497 381.533 353.703 383.468 352.503C381.628 351.044 380.629 348.829 379.97 346.621C379.043 343.543 378.63 340.343 378.749 337.14C378.947 331.792 380.573 326.146 378.265 321.272C376.933 318.461 374.451 316.322 371.921 314.397C370.163 313.019 368.266 311.816 366.259 310.806C362.515 309.011 358.233 308.224 354.101 307.826C348.724 307.307 353.427 312.044 355.148 314.007Z" fill="#965D7B"/>
</g>
<defs>
<filter id="filter0_b" x="-4" y="-4" width="625" height="590" filterUnits="userSpaceOnUse" color-interpolation-filters="sRGB">
<feFlood flood-opacity="0" result="BackgroundImageFix"/>
<feGaussianBlur in="BackgroundImage" stdDeviation="2"/>
<feComposite in2="SourceAlpha" operator="in" result="effect1_backgroundBlur"/>
<feBlend mode="normal" in="SourceGraphic" in2="effect1_backgroundBlur" result="shape"/>
</filter>
<linearGradient id="paint0_linear" x1="316.288" y1="541.387" x2="316.288" y2="210.588" gradientUnits="userSpaceOnUse">
<stop stop-color="#808080" stop-opacity="0.25"/>
<stop offset="0.54" stop-color="#808080" stop-opacity="0.12"/>
<stop offset="1" stop-color="#808080" stop-opacity="0.1"/>
</linearGradient>
</defs>
</svg>
