<svg width="547" height="412" viewBox="0 0 547 412" fill="none" xmlns="http://www.w3.org/2000/svg">
<g clip-path="url(#clip0)">
<rect width="547" height="412" fill="#FFFDF9"/>
<path d="M403.971 111.003C357.461 64.8675 188.954 8.23622 -113 150.795L-5.22327 411.604L289.486 380.896L403.971 111.003Z" fill="#FFD5D8" fill-opacity="0.4"/>
<path d="M276.721 89.4177C277.31 89.4177 277.787 88.9629 277.787 88.4019C277.787 87.8409 277.31 87.3862 276.721 87.3862C276.132 87.3862 275.655 87.8409 275.655 88.4019C275.655 88.9629 276.132 89.4177 276.721 89.4177Z" fill="#F8F9FA"/>
<path d="M279.567 89.4177C280.155 89.4177 280.632 88.9629 280.632 88.4019C280.632 87.8409 280.155 87.3862 279.567 87.3862C278.978 87.3862 278.501 87.8409 278.501 88.4019C278.501 88.9629 278.978 89.4177 279.567 89.4177Z" fill="#F8F9FA"/>
<path d="M282.417 89.4177C283.006 89.4177 283.483 88.9629 283.483 88.4019C283.483 87.8409 283.006 87.3862 282.417 87.3862C281.829 87.3862 281.352 87.8409 281.352 88.4019C281.352 88.9629 281.829 89.4177 282.417 89.4177Z" fill="#F8F9FA"/>
<path d="M3.68377 278.441C3.68377 278.441 -21.9637 316.626 62.1137 317.282C62.1137 317.282 63.3503 284.057 35.866 270.369C30.5218 267.695 24.3342 266.982 18.4755 268.366C12.6167 269.749 7.49375 273.132 4.077 277.873L3.68377 278.441Z" fill="#575988"/>
<path d="M3.87537 277.799C3.87537 277.799 46.9385 285.886 62.1139 317.282" stroke="#535461" stroke-miterlimit="10"/>
<path d="M65.8701 312.143C65.8701 312.143 38.2203 278.09 40.7452 244.52C41.78 230.433 38.3082 216.36 30.2885 204.476C26.4725 198.85 22.1237 193.568 17.2966 188.697" stroke="#535461" stroke-width="2" stroke-miterlimit="10"/>
<path d="M18.7448 167.539C20.6747 172.253 17.3168 189.259 17.3168 189.259C17.3168 189.259 2.76234 178.909 0.832443 174.195C0.323582 173.065 0.0584875 171.849 0.0529452 170.62C0.0474028 169.39 0.301524 168.172 0.800181 167.038C1.29884 165.904 2.03184 164.877 2.95554 164.018C3.87925 163.159 4.97477 162.487 6.1769 162.04C7.37903 161.593 8.66319 161.382 9.95293 161.418C11.2427 161.454 12.5116 161.737 13.6843 162.25C14.8569 162.763 15.9092 163.495 16.7786 164.404C17.648 165.313 18.3167 166.379 18.7448 167.539Z" fill="#575988"/>
<path d="M44.2532 188.14C43.1874 193.101 30.6663 205.635 30.6663 205.635C30.6663 205.635 24.3437 189.412 25.4095 184.432C25.6359 183.228 26.1129 182.08 26.8122 181.054C27.5115 180.029 28.4191 179.147 29.4816 178.461C30.544 177.775 31.7397 177.298 32.9983 177.059C34.257 176.82 35.553 176.824 36.8102 177.07C38.0673 177.316 39.2602 177.799 40.3184 178.491C41.3767 179.182 42.2789 180.069 42.972 181.098C43.6652 182.128 44.1351 183.279 44.3543 184.484C44.5734 185.689 44.5373 186.924 44.248 188.115L44.2532 188.14Z" fill="#575988"/>
<path d="M61.8862 233.012C58.3368 236.779 40.8953 241.577 40.8953 241.577C40.8953 241.577 44.0307 224.53 47.5749 220.763C49.2896 218.992 51.667 217.936 54.1928 217.823C56.7185 217.71 59.1893 218.549 61.0706 220.159C62.9518 221.769 64.0922 224.021 64.2448 226.426C64.3975 228.831 63.5501 231.197 61.8862 233.012Z" fill="#575988"/>
<path d="M67.205 269.831C64.3748 274.116 48.0302 281.665 48.0302 281.665C48.0302 281.665 48.0974 264.363 50.9276 260.078C51.5869 259.032 52.4584 258.123 53.4912 257.403C54.5239 256.683 55.697 256.166 56.9419 255.883C58.1867 255.601 59.4783 255.558 60.7408 255.757C62.0034 255.956 63.2116 256.393 64.2946 257.042C65.3777 257.692 66.3138 258.541 67.0482 259.54C67.7826 260.538 68.3005 261.667 68.5715 262.859C68.8426 264.051 68.8613 265.282 68.6267 266.481C68.392 267.68 67.9087 268.822 67.205 269.841V269.831Z" fill="#575988"/>
<path d="M12.2158 213.544C17.1104 215.517 35.0383 212.765 35.0383 212.765C35.0383 212.765 24.5972 198.604 19.7026 196.631C18.5373 196.163 17.2866 195.918 16.0219 195.91C14.7572 195.902 13.5033 196.131 12.3317 196.585C11.1601 197.039 10.0939 197.709 9.19376 198.556C8.29366 199.402 7.57737 200.41 7.08578 201.52C6.59419 202.631 6.33693 203.823 6.3287 205.028C6.32046 206.233 6.5614 207.428 7.03777 208.545C7.51413 209.661 8.21659 210.678 9.10504 211.535C9.99349 212.393 11.0505 213.076 12.2158 213.544Z" fill="#575988"/>
<path d="M19.0248 256.527C24.3126 257.02 40.5538 249.274 40.5538 249.274C40.5538 249.274 26.1338 238.761 20.846 238.278C19.571 238.13 18.2777 238.227 17.0426 238.563C15.8075 238.899 14.6555 239.467 13.6546 240.234C12.6537 241.002 11.8241 241.952 11.2149 243.03C10.6057 244.107 10.2292 245.29 10.1076 246.509C9.98592 247.728 10.1216 248.957 10.5067 250.125C10.8917 251.293 11.5183 252.375 12.3494 253.309C13.1806 254.242 14.1994 255.007 15.3459 255.559C16.4924 256.111 17.7433 256.439 19.0248 256.522V256.527Z" fill="#575988"/>
<path d="M31.6442 297.434C36.7716 298.761 54.1511 293.751 54.1511 293.751C54.1511 293.751 41.8007 281.064 36.6733 279.742C35.4458 279.401 34.1594 279.297 32.8892 279.436C31.619 279.574 30.3905 279.952 29.2755 280.549C28.1605 281.145 27.1815 281.947 26.3956 282.908C25.6097 283.869 25.0327 284.97 24.6984 286.146C24.3641 287.322 24.2792 288.55 24.4486 289.757C24.618 290.965 25.0383 292.129 25.6851 293.18C26.3318 294.231 27.1919 295.148 28.2151 295.879C29.2383 296.609 30.404 297.138 31.6442 297.434Z" fill="#575988"/>
<path opacity="0.25" d="M18.7448 167.539C20.6747 172.253 17.3168 189.259 17.3168 189.259C17.3168 189.259 2.76234 178.909 0.832443 174.195C0.323582 173.065 0.0584875 171.849 0.0529452 170.62C0.0474028 169.39 0.301524 168.172 0.800181 167.038C1.29884 165.904 2.03184 164.877 2.95554 164.018C3.87925 163.159 4.97477 162.487 6.1769 162.04C7.37903 161.593 8.66319 161.382 9.95293 161.418C11.2427 161.454 12.5116 161.737 13.6843 162.25C14.8569 162.763 15.9092 163.495 16.7786 164.404C17.648 165.313 18.3167 166.379 18.7448 167.539Z" fill="black"/>
<path opacity="0.25" d="M44.2532 188.14C43.1874 193.101 30.6663 205.635 30.6663 205.635C30.6663 205.635 24.3437 189.412 25.4095 184.432C25.6359 183.228 26.1129 182.08 26.8122 181.054C27.5115 180.029 28.4191 179.147 29.4816 178.461C30.544 177.775 31.7397 177.298 32.9983 177.059C34.257 176.82 35.553 176.824 36.8102 177.07C38.0673 177.316 39.2602 177.799 40.3184 178.491C41.3767 179.182 42.2789 180.069 42.972 181.098C43.6652 182.128 44.1351 183.279 44.3543 184.484C44.5734 185.689 44.5373 186.924 44.248 188.115L44.2532 188.14Z" fill="black"/>
<path opacity="0.25" d="M61.8862 233.012C58.3368 236.779 40.8953 241.577 40.8953 241.577C40.8953 241.577 44.0307 224.53 47.5749 220.763C49.2896 218.992 51.667 217.936 54.1928 217.823C56.7185 217.71 59.1893 218.549 61.0706 220.159C62.9518 221.769 64.0922 224.021 64.2448 226.426C64.3975 228.831 63.5501 231.197 61.8862 233.012Z" fill="black"/>
<path opacity="0.25" d="M67.205 269.831C64.3748 274.116 48.0302 281.665 48.0302 281.665C48.0302 281.665 48.0974 264.363 50.9276 260.078C51.5869 259.032 52.4584 258.123 53.4912 257.403C54.5239 256.683 55.697 256.166 56.9419 255.883C58.1867 255.601 59.4783 255.558 60.7408 255.757C62.0034 255.956 63.2116 256.393 64.2946 257.042C65.3777 257.692 66.3138 258.541 67.0482 259.54C67.7826 260.538 68.3005 261.667 68.5715 262.859C68.8426 264.051 68.8613 265.282 68.6267 266.481C68.392 267.68 67.9087 268.822 67.205 269.841V269.831Z" fill="black"/>
<path opacity="0.25" d="M12.2158 213.544C17.1104 215.517 35.0383 212.765 35.0383 212.765C35.0383 212.765 24.5972 198.604 19.7026 196.631C18.5373 196.163 17.2866 195.918 16.0219 195.91C14.7572 195.902 13.5033 196.131 12.3317 196.585C11.1601 197.039 10.0939 197.709 9.19376 198.556C8.29366 199.402 7.57737 200.41 7.08578 201.52C6.59419 202.631 6.33693 203.823 6.3287 205.028C6.32046 206.233 6.5614 207.428 7.03777 208.545C7.51413 209.661 8.21659 210.678 9.10504 211.535C9.99349 212.393 11.0505 213.076 12.2158 213.544Z" fill="black"/>
<path opacity="0.25" d="M19.0248 256.527C24.3126 257.02 40.5538 249.274 40.5538 249.274C40.5538 249.274 26.1338 238.761 20.846 238.278C19.571 238.13 18.2777 238.227 17.0426 238.563C15.8075 238.899 14.6555 239.467 13.6546 240.234C12.6537 241.002 11.8241 241.952 11.2149 243.03C10.6057 244.107 10.2292 245.29 10.1076 246.509C9.98592 247.728 10.1216 248.957 10.5067 250.125C10.8917 251.293 11.5183 252.375 12.3494 253.309C13.1806 254.242 14.1994 255.007 15.3459 255.559C16.4924 256.111 17.7433 256.439 19.0248 256.522V256.527Z" fill="black"/>
<path opacity="0.25" d="M31.6442 297.434C36.7716 298.761 54.1511 293.751 54.1511 293.751C54.1511 293.751 41.8007 281.064 36.6733 279.742C35.4458 279.401 34.1594 279.297 32.8892 279.436C31.619 279.574 30.3905 279.952 29.2755 280.549C28.1605 281.145 27.1815 281.947 26.3956 282.908C25.6097 283.869 25.0327 284.97 24.6984 286.146C24.3641 287.322 24.2792 288.55 24.4486 289.757C24.618 290.965 25.0383 292.129 25.6851 293.18C26.3318 294.231 27.1919 295.148 28.2151 295.879C29.2383 296.609 30.404 297.138 31.6442 297.434Z" fill="black"/>
<path d="M62.1604 145.961V277.849L246.293 243.761L242.774 142.608L62.1604 145.961Z" fill="#DBACA2"/>
<path d="M408.285 301.463V345.053L213.598 399.263L211.611 398.282L57.6177 322.139V141.908L248.197 136.04L249.371 236.074L241.745 238.313L238.811 144.748L71.1011 150.29L69.9318 285.812L215.942 346.729L216.056 346.704L408.285 301.463Z" fill="#E8C2B8"/>
<path opacity="0.1" d="M408.285 301.463V345.053L213.598 399.263L211.611 398.282L216.056 346.704L408.285 301.463Z" fill="black"/>
<path d="M173.577 238.169C173.577 238.169 79.3173 247.134 70.1645 260.117C61.0117 273.1 70.0869 289.027 70.0869 289.027L215.807 349.382L413.423 300.763C413.423 300.763 408.146 266.67 391.728 262.76C375.311 258.85 244.528 232.026 244.528 232.026C244.528 232.026 191.753 228.949 173.577 238.169Z" fill="#EBECF0"/>
<path d="M70.0767 260.24L218.731 309.14C218.731 309.14 377.288 263.322 399.748 267.637C399.748 267.637 288.833 229.802 244.528 231.449C209.221 232.76 172.253 238.283 172.253 238.283C172.253 238.283 74.1848 247.671 70.0767 260.24Z" fill="#F8F9FA"/>
<path d="M298.793 291.7L298.829 291.65V291.621L298.855 291.572V291.537V291.488V291.453V291.399V291.364V291.3V291.271C298.855 291.241 298.855 291.212 298.855 291.182C298.855 291.148 298.855 291.113 298.855 291.078C298.855 291.044 298.855 291.078 298.855 291.044C298.855 291.009 298.855 290.995 298.855 290.97V290.926V290.852V290.802V290.728V290.679V290.6V290.551V290.467V290.423L298.814 290.299L298.762 290.161V290.117L298.721 290.018V289.964L298.679 289.87L298.653 289.811L298.612 289.718L298.581 289.653L298.534 289.56L298.503 289.501L298.446 289.397L298.415 289.343L298.338 289.2L298.245 289.032L298.214 288.978L298.146 288.86L298.11 288.795L298.043 288.687L298.001 288.618L297.934 288.509L297.82 288.347L297.748 288.238L297.701 288.169L297.624 288.051L297.582 287.987L297.479 287.829V287.799L297.35 287.612L297.308 287.558L297.215 287.425L297.163 287.356L297.075 287.237L297.024 287.163L296.936 287.045L296.879 286.966L296.786 286.867L296.729 286.793L296.63 286.665L296.579 286.601L296.449 286.434V286.409L296.299 286.212L296.247 286.143L296.149 286.014L296.082 285.931L295.989 285.812L295.922 285.728L295.828 285.61L295.761 285.531L295.663 285.408L295.596 285.329L295.492 285.201L295.43 285.127L295.306 284.979L295.264 284.93C294.799 284.367 294.318 283.805 293.836 283.263C292.479 281.726 290.817 280.458 288.946 279.534C287.074 278.609 285.03 278.045 282.93 277.873C282.5 277.839 282.05 277.795 281.595 277.74H281.403L281.067 277.696H280.907L280.389 277.627L279.898 277.553L279.727 277.523L279.38 277.464L279.173 277.425L278.858 277.366L278.635 277.321L278.335 277.257L278.107 277.208L277.807 277.139L277.575 277.084L277.28 277.011L277.047 276.951L276.752 276.872C275.2 274.673 272.84 272.716 270.543 272.336C269.91 272.242 269.264 272.274 268.644 272.43L268.536 272.316L268.38 272.149L268.173 271.897L268.039 271.729L267.822 271.439L267.713 271.296C267.606 271.148 267.504 270.996 267.408 270.842C267.102 270.712 266.783 270.615 266.456 270.551C271.034 269.89 275.548 268.876 279.955 267.518C280.168 267.441 280.371 267.34 280.56 267.218L280.653 267.188C284.487 265.857 289.195 252.888 285.884 251.074C282.573 249.259 277.518 234.309 274.553 226.651C271.588 218.993 263.046 218.179 263.046 218.179C263.046 218.179 250.67 209.042 245.092 210.038C239.515 211.034 238.64 203.061 238.118 202.731C238.057 202.683 238.006 202.624 237.968 202.558C236.622 200.551 225.928 197.874 220.159 196.552C214.519 192.657 207.793 189.634 202.355 188.387C200.538 187.918 198.633 187.857 196.787 188.208C194.942 188.558 193.206 189.312 191.717 190.408C180.293 190.961 178.472 199.185 178.472 199.185C178.433 200.308 178.637 201.426 179.072 202.469C178.455 202.477 177.838 202.446 177.225 202.376C178.549 200.29 178.591 197.608 179.579 195.315C181.53 190.778 186.911 188.436 191.997 187.825C194.961 187.47 198.205 187.47 200.544 185.699C201.748 184.783 202.57 183.487 202.862 182.045C202.957 181.734 202.927 181.4 202.779 181.109C202.634 180.919 202.44 180.77 202.215 180.675C199.152 179.117 195.463 179.521 191.986 179.447C186.336 179.329 180.831 177.854 175.367 176.488C173.055 175.911 170.556 175.354 168.32 176.173C166.209 176.942 164.771 178.776 163.079 180.201C156.146 186.03 144.634 185.186 138.467 191.754C137.038 193.278 135.967 195.344 136.49 197.326C136.702 198.135 137.173 198.88 137.323 199.703C137.623 201.33 136.65 202.889 135.828 204.343C135.005 205.798 134.276 207.563 135.052 209.042C136.226 211.301 139.812 211.133 141.674 212.923C142.538 213.756 142.958 214.95 143.858 215.744C145.301 217.011 147.521 216.912 149.477 216.73C150.248 216.661 151.401 216.459 151.826 215.813C153.339 217.169 155.161 218.171 157.15 218.742C159.138 219.313 161.239 219.436 163.286 219.101C165.333 218.766 167.27 217.983 168.946 216.814C170.621 215.644 171.989 214.12 172.941 212.361C177.155 212.09 181.344 213.169 184.841 215.428C185.368 216.908 186.335 218.21 187.625 219.175C188.846 220.088 190.3 221.207 191.764 222.405C188.054 223.337 184.758 223.934 184.758 223.934C184.758 223.934 170.116 228.421 170.116 231.409C170.168 231.95 170.344 232.474 170.633 232.943C170.263 233.686 170.053 234.492 170.018 235.314C165.977 234.664 162.743 233.682 161.072 232.238C161.072 232.238 160.596 232.114 159.861 231.976C158.878 230.778 155.991 227.45 154.273 227.583C153.13 227.671 152.721 230.206 152.576 232.474C152.426 232.598 152.293 232.741 152.183 232.898C150.439 235.388 153.58 240.374 155.67 241.207C157.76 242.04 169.267 241.7 177.111 247.188C180.588 249.619 186.564 250.088 192.116 249.861C186.533 253.618 178.715 259.392 177.628 262.972C177.044 264.871 176.356 267.228 176.397 269.649C172.982 273.953 167.813 283.041 180.593 287.4C191.127 290.985 219.688 290.526 240.037 289.649C249.506 291.241 257.324 292.844 260.604 294.377C260.604 294.377 268.448 295.363 271.588 297.203C274.729 299.042 280.477 298.534 280.477 298.534C280.477 298.534 291.632 300.363 294.074 302.686C296.517 305.008 300.697 298.697 295.471 295.709C293.433 294.545 290.396 292.627 287.452 290.526C291.234 290.95 294.571 291.414 296.692 291.887L296.905 291.932H296.972H297.106H297.184H297.298H297.37H297.479H297.996H298.131H298.172H298.255H298.302H298.369H298.41H298.472H298.514L298.571 291.907H298.607L298.659 291.872H298.684L298.752 291.818L298.793 291.7ZM250.639 275.773C250.639 275.773 249.169 275.452 246.976 274.959L242.619 273.283C242.619 273.283 250.054 271.054 256.941 268.219C258.912 269.042 260.645 269.698 261.08 270.295C261.267 270.492 261.522 270.62 261.799 270.655C259.212 271.266 255.89 272.839 251.994 276.468C251.522 276.275 251.068 276.042 250.639 275.773ZM197.998 235.734L202.298 233.83C203.235 234.59 204.238 235.31 205.221 236.01C202.862 236.143 199.69 236.291 196.105 236.384C197.202 236.034 197.998 235.734 197.998 235.734Z" fill="url(#paint0_linear)"/>
<path d="M161.361 232.558C161.361 232.558 157.605 227.696 155.561 227.844C153.518 227.992 153.854 236.138 153.854 236.138L161.361 232.558Z" fill="#FFD5D8"/>
<path d="M209.655 235.812C209.655 235.812 169.723 238.904 162.215 232.395C162.215 232.395 155.22 230.605 153.512 233.046C151.805 235.487 154.878 240.364 156.927 241.177C158.976 241.991 170.24 241.67 177.918 247.03C185.596 252.39 205.734 248.017 205.734 248.017L214.095 244.925L209.655 235.812Z" fill="#FF7C5E"/>
<path opacity="0.05" d="M209.655 235.812C209.655 235.812 169.723 238.904 162.215 232.395C162.215 232.395 155.22 230.605 153.512 233.046C151.805 235.487 154.878 240.364 156.927 241.177C158.976 241.991 170.24 241.67 177.918 247.03C185.596 252.39 205.734 248.017 205.734 248.017L214.095 244.925L209.655 235.812Z" fill="black"/>
<path d="M266.823 254.027C266.823 254.027 258.291 248.174 240.715 255.507C223.139 262.839 179.284 266.729 179.284 266.729C179.284 266.729 164.611 280.714 181.354 286.409C198.097 292.104 261.214 287.395 261.214 287.395C261.214 287.395 286.981 289.022 295.001 290.812C299.854 291.897 296.035 286.66 292.233 282.361C290.905 280.854 289.278 279.613 287.445 278.707C285.613 277.802 283.61 277.25 281.553 277.084C276.514 276.675 269.524 275.166 266.326 270.156C266.326 270.156 260.185 267.227 250.97 276.009L242.081 272.568C242.081 272.568 266.482 265.25 267.335 260.369C268.189 255.487 266.823 254.027 266.823 254.027Z" fill="#FFD5D8"/>
<path opacity="0.05" d="M266.823 254.027C266.823 254.027 258.291 248.174 240.715 255.507C223.139 262.839 179.284 266.729 179.284 266.729C179.284 266.729 164.611 280.714 181.354 286.409C198.097 292.104 261.214 287.395 261.214 287.395C261.214 287.395 286.981 289.022 295.001 290.812C299.254 291.759 296.837 287.854 293.635 283.998C292.037 282.061 290.054 280.444 287.799 279.241C285.543 278.037 283.06 277.271 280.493 276.986C275.577 276.453 269.307 274.821 266.331 270.157C266.331 270.157 260.19 267.228 250.975 276.01L242.081 272.568C242.081 272.568 266.482 265.25 267.335 260.369C268.189 255.487 266.823 254.027 266.823 254.027Z" fill="black"/>
<path d="M266.994 230.936C266.994 230.936 256.242 214.664 230.817 228.82L198.221 246.079C198.221 246.079 180.112 256.976 178.425 262.504C176.739 268.031 174.157 277.464 191.909 281.044C209.661 284.624 250.954 289.175 259.657 293.243C259.657 293.243 267.335 294.229 270.409 296.009C273.482 297.789 279.111 297.311 279.111 297.311C279.111 297.311 290.033 299.101 292.424 301.379C294.814 303.657 298.907 297.474 293.79 294.55C288.673 291.626 277.067 283.815 277.233 280.743C277.399 277.671 273.306 272.242 269.363 271.582C265.421 270.921 260.319 276.458 260.319 276.458C260.319 276.458 253.836 277.444 249.909 274.979C249.909 274.979 229.772 270.585 227.723 269.289C225.674 267.992 211.684 262.947 211.684 262.947C211.684 262.947 244.797 262.622 254.514 254.165C254.514 254.165 258.27 251.562 261.339 252.375C261.364 252.4 276.55 246.873 266.994 230.936Z" fill="#FFD5D8"/>
<path d="M170.235 200.359C170.235 200.359 179.962 206.863 187.469 200.359C194.977 193.855 190.719 220.364 190.719 220.364C190.719 220.364 180.309 207.188 164.781 215.813L170.235 200.359Z" fill="#FFD5D8"/>
<path opacity="0.05" d="M170.235 200.359C170.235 200.359 179.962 206.863 187.469 200.359C194.977 193.855 190.719 220.364 190.719 220.364C190.719 220.364 180.309 207.188 164.781 215.813L170.235 200.359Z" fill="black"/>
<path d="M128.6 256.143C128.6 256.143 138.839 247.849 144.639 247.686C146.367 247.637 148.364 245.96 150.33 243.633C152.814 240.692 156.09 238.451 159.807 237.148C163.525 235.845 167.544 235.53 171.435 236.237C174.736 236.818 178.798 236.804 183.729 235.64C201.646 231.409 192.773 220.847 192.773 220.847L187.143 216.296C187.143 216.296 179.465 211.256 176.563 211.582C173.66 211.907 166.153 219.225 165.299 218.411C164.445 217.598 154.035 210.28 152.328 208.327C150.62 206.375 136.961 200.034 140.376 198.244C143.791 196.454 161.02 189.787 157.605 188.485C154.19 187.184 135.76 185.231 128.594 193.362C121.428 201.493 125.009 251.424 128.6 256.143Z" fill="#F8F9FA"/>
<path opacity="0.05" d="M128.6 256.143C128.6 256.143 138.839 247.849 144.639 247.686C146.367 247.637 148.364 245.96 150.33 243.633C152.814 240.692 156.09 238.451 159.807 237.148C163.525 235.845 167.544 235.53 171.435 236.237C174.736 236.818 178.798 236.804 183.729 235.64C201.646 231.409 192.773 220.847 192.773 220.847L187.143 216.296C187.143 216.296 179.465 211.256 176.563 211.582C173.66 211.907 166.153 219.225 165.299 218.411C164.445 217.598 154.035 210.28 152.328 208.327C150.62 206.375 136.961 200.034 140.376 198.244C143.791 196.454 161.02 189.787 157.605 188.485C154.19 187.184 135.76 185.231 128.594 193.362C121.428 201.493 125.009 251.424 128.6 256.143Z" fill="black"/>
<path d="M129.283 255.004C129.283 255.004 139.522 246.71 145.322 246.547C147.05 246.498 149.047 244.821 151.013 242.494C153.494 239.557 156.766 237.317 160.478 236.013C164.191 234.71 168.205 234.391 172.092 235.093C175.393 235.674 179.455 235.66 184.386 234.496C202.303 230.265 193.43 219.703 193.43 219.703L187.801 215.152C187.801 215.152 180.122 210.112 177.22 210.438C174.317 210.763 166.81 218.081 165.956 217.267C165.102 216.454 154.692 209.136 152.985 207.183C151.277 205.231 137.644 198.894 141.048 197.124C144.453 195.354 161.698 188.668 158.283 187.366C154.868 186.064 136.438 184.111 129.272 192.243C122.106 200.374 125.697 250.285 129.283 255.004Z" fill="#F8F9FA"/>
<path d="M179.279 200.034C179.279 200.034 182.011 187.672 201.977 192.553C221.944 197.435 231.842 208.002 231.842 208.002L213.733 215.97L191.547 208.816C191.547 208.816 179.113 208.959 179.279 200.034Z" fill="#FFD5D8"/>
<path opacity="0.05" d="M215.802 196.942C215.802 196.942 235.003 200.887 236.814 203.604C236.852 203.668 236.903 203.725 236.964 203.771C237.481 204.097 238.33 211.902 243.788 210.926C249.247 209.95 261.38 218.894 261.38 218.894C261.38 218.894 269.741 219.708 272.644 227.188C275.546 234.669 280.493 249.309 283.737 251.094C286.981 252.879 282.371 265.566 278.62 266.873C274.869 268.179 261.385 271.266 260.19 269.639C258.995 268.012 248.585 266.222 249.268 261.02C249.951 255.817 254.043 250.936 250.82 247.844C247.596 244.752 245.532 236.621 240.751 234.994C235.97 233.367 227.438 232.879 222.321 236.133C217.204 239.387 211.021 239.53 211.021 239.53C211.021 239.53 200.441 233.677 198.733 229.609C197.585 226.868 191.862 222.282 188.251 219.585C187.304 218.877 186.531 217.981 185.985 216.959C185.439 215.937 185.133 214.814 185.089 213.668C184.939 209.654 184.805 203.737 185.25 202.78C185.933 201.301 195.318 192.534 195.318 192.534L215.802 196.942Z" fill="black"/>
<path d="M216.485 196.631C216.485 196.631 235.686 200.576 237.497 203.293C237.535 203.357 237.586 203.414 237.647 203.461C238.164 203.786 239.013 211.592 244.471 210.615C249.93 209.639 262.063 218.584 262.063 218.584C262.063 218.584 270.424 219.397 273.327 226.878C276.229 234.358 281.176 248.998 284.42 250.783C287.664 252.568 283.054 265.255 279.303 266.562C275.551 267.869 262.068 270.955 260.873 269.328C259.678 267.701 249.268 265.911 249.951 260.709C250.634 255.507 254.726 250.625 251.503 247.533C248.279 244.442 246.215 236.311 241.434 234.683C236.653 233.056 228.121 232.568 223.004 235.822C217.887 239.077 211.146 239.644 211.146 239.644C211.146 239.644 201.165 233.382 199.458 229.318C198.309 226.577 192.586 221.991 188.975 219.294C188.029 218.586 187.255 217.69 186.709 216.668C186.163 215.646 185.858 214.523 185.814 213.377C185.664 209.363 185.529 203.446 185.974 202.489C186.657 201.01 196.043 192.243 196.043 192.243L216.485 196.631Z" fill="#FF7C5E"/>
<path d="M172.284 231.907C172.113 232.07 169.21 236.138 172.625 238.411C173.57 239.071 174.662 239.515 175.815 239.71C176.969 239.904 178.154 239.842 179.279 239.53L172.284 231.907Z" fill="#FFD5D8"/>
<path opacity="0.1" d="M188.649 196.454C188.649 196.454 193.259 187.672 203.136 189.95C213.013 192.228 227.366 200.522 230.781 208.816C234.196 217.109 217.846 227.203 217.846 227.203L198.392 235.822C198.392 235.822 192.421 238.1 190.713 237.302C189.006 236.503 180.816 243.475 180.816 243.475C180.816 243.475 171.601 235.019 171.601 232.09C171.601 229.161 185.938 224.738 185.938 224.738C185.938 224.738 203.012 221.646 202.831 218.559C202.831 218.559 205.734 215.305 204.197 214.328C202.66 213.352 186.191 208.717 186.191 208.717C186.191 208.717 185.596 198.406 188.649 196.454Z" fill="black"/>
<path d="M188.132 195.966C188.132 195.966 192.742 187.184 202.619 189.462C212.496 191.74 226.849 200.034 230.264 208.327C233.678 216.621 217.334 226.71 217.334 226.71L197.879 235.329C197.879 235.329 191.909 237.607 190.201 236.809C188.494 236.01 180.303 242.982 180.303 242.982C180.303 242.982 171.089 234.526 171.089 231.597C171.089 228.668 185.426 224.245 185.426 224.245C185.426 224.245 202.5 221.153 202.319 218.066C202.319 218.066 205.221 214.812 203.685 213.835C202.148 212.859 185.679 208.224 185.679 208.224C185.679 208.224 185.084 197.918 188.132 195.966Z" fill="#FF7C5E"/>
<path opacity="0.1" d="M166.313 214.18C169.081 212.574 172.197 211.59 175.424 211.306C176.361 209.585 173.903 207.711 173.903 205.64C173.903 203.904 173.21 203.244 172.537 201.735C170.095 200.892 171.771 198.727 171.771 198.727L166.313 214.18Z" fill="black"/>
<path d="M162.215 219.713C169.473 219.713 175.357 214.106 175.357 207.188C175.357 200.271 169.473 194.664 162.215 194.664C154.957 194.664 149.073 200.271 149.073 207.188C149.073 214.106 154.957 219.713 162.215 219.713Z" fill="#FFD5D8"/>
<path d="M152.364 212.326C155.298 210.167 159.116 209.442 162.81 209.126C165.118 208.929 167.467 208.86 169.681 208.189C170.955 207.766 172.19 207.245 173.375 206.631C174.959 205.862 176.594 205.053 177.675 203.707C179.362 201.607 179.31 198.697 180.366 196.247C182.275 191.809 187.542 189.511 192.54 188.914C195.443 188.564 198.614 188.564 200.911 186.833C202.09 185.937 202.895 184.669 203.183 183.259C203.275 182.954 203.245 182.627 203.1 182.341C202.958 182.156 202.767 182.01 202.546 181.917C199.546 180.394 195.934 180.788 192.535 180.714C187.004 180.601 181.612 179.151 176.263 177.815C173.996 177.248 171.549 176.705 169.366 177.504C167.296 178.259 165.894 180.053 164.233 181.449C157.445 187.159 146.176 186.331 140.138 192.76C138.741 194.24 137.69 196.276 138.203 198.214C138.415 199.008 138.87 199.733 139.02 200.541C139.315 202.134 138.363 203.663 137.556 205.083C136.749 206.503 136.045 208.239 136.795 209.683C137.949 211.893 141.452 211.73 143.278 213.48C144.127 214.294 144.53 215.453 145.415 216.242C146.833 217.484 149.001 217.386 150.915 217.228C151.95 217.134 153.642 216.809 153.347 215.487C153.099 214.304 151.458 213.796 152.364 212.326Z" fill="#85596B"/>
<path d="M147.775 219.807C147.775 219.807 156.736 213.396 162.365 215.497C167.995 217.598 169.531 218.751 173.117 217.469C176.702 216.187 178.234 220.073 178.234 220.073L155.903 226.217L147.775 219.807Z" fill="#F8F9FA"/>
<path opacity="0.05" d="M135.683 231.015C135.683 231.015 139.781 220.931 144.727 218.978L135.683 231.015Z" fill="black"/>
<path opacity="0.05" d="M130.39 227.76C130.39 227.76 134.488 217.676 139.434 215.724L130.39 227.76Z" fill="black"/>
<path opacity="0.05" d="M226.295 230.201C226.295 230.201 240.782 223.534 250.525 224.185C260.268 224.836 261.959 218.983 261.959 218.983" fill="black"/>
<path d="M163.622 396.65C162.417 395.58 161.284 394.318 160.932 392.784C160.58 391.251 161.268 389.406 162.81 388.839C164.533 388.208 166.38 389.332 167.777 390.501C169.174 391.67 170.778 392.967 172.605 392.72C171.664 391.907 170.96 390.876 170.562 389.726C170.164 388.577 170.085 387.349 170.333 386.162C170.413 385.672 170.631 385.212 170.964 384.831C171.922 383.844 173.66 384.273 174.803 385.043C178.425 387.508 179.46 392.207 179.486 396.458C179.853 394.924 179.543 393.327 179.553 391.754C179.564 390.181 180.014 388.44 181.406 387.592C182.272 387.148 183.247 386.93 184.231 386.961C185.871 386.902 187.697 387.059 188.815 388.203C190.206 389.623 189.849 392.005 188.634 393.568C187.418 395.131 185.581 396.113 183.889 397.192C182.531 397.964 181.372 399.017 180.5 400.274C180.397 400.45 180.312 400.635 180.247 400.826H169.976C167.67 399.714 165.533 398.309 163.622 396.65Z" fill="#575988"/>
<path d="M400.866 352.691C400.065 352.069 399.483 351.229 399.194 350.284C398.977 349.328 399.407 348.184 400.364 347.819C401.435 347.429 402.583 348.134 403.468 348.854C404.353 349.574 405.331 350.388 406.469 350.235C405.884 349.73 405.446 349.088 405.199 348.374C404.951 347.659 404.902 346.895 405.057 346.157C405.106 345.852 405.242 345.566 405.45 345.329C406.045 344.722 407.126 344.984 407.84 345.462C410.106 346.981 410.738 349.9 410.753 352.558C410.981 351.606 410.789 350.61 410.795 349.633C410.8 348.657 411.079 347.572 411.948 347.05C412.488 346.772 413.095 346.636 413.708 346.655C414.742 346.621 415.86 346.719 416.558 347.429C417.422 348.312 417.2 349.791 416.445 350.763C415.689 351.734 414.546 352.346 413.495 353.016C412.651 353.496 411.931 354.152 411.39 354.934C411.326 355.043 411.274 355.157 411.234 355.274H404.813C403.381 354.587 402.053 353.717 400.866 352.691Z" fill="#575988"/>
</g>
<defs>
<linearGradient id="paint0_linear" x1="216.868" y1="303.189" x2="216.868" y2="175.759" gradientUnits="userSpaceOnUse">
<stop stop-color="#808080" stop-opacity="0.25"/>
<stop offset="0.54" stop-color="#808080" stop-opacity="0.12"/>
<stop offset="1" stop-color="#808080" stop-opacity="0.1"/>
</linearGradient>
<clipPath id="clip0">
<rect width="547" height="412" fill="white"/>
</clipPath>
</defs>
</svg>
