<svg width="492" height="373" viewBox="0 0 492 373" fill="none" xmlns="http://www.w3.org/2000/svg">
<g clip-path="url(#clip0)">
<path d="M491.314 365.638H295.166C294.984 365.637 294.81 365.564 294.682 365.436C294.553 365.307 294.481 365.132 294.481 364.95C294.481 364.768 294.553 364.593 294.682 364.464C294.81 364.335 294.984 364.263 295.166 364.262H491.314C491.496 364.262 491.67 364.335 491.799 364.464C491.928 364.593 492 364.768 492 364.95C492 365.132 491.928 365.307 491.799 365.436C491.67 365.565 491.496 365.638 491.314 365.638Z" fill="#3F3D56"/>
<path d="M398.736 282.242C409.241 282.242 417.757 273.708 417.757 263.181C417.757 252.654 409.241 244.12 398.736 244.12C388.23 244.12 379.714 252.654 379.714 263.181C379.714 273.708 388.23 282.242 398.736 282.242Z" fill="#2F2E41"/>
<path d="M399.121 283.926C406.94 283.926 413.279 277.574 413.279 269.739C413.279 261.904 406.94 255.553 399.121 255.553C391.303 255.553 384.964 261.904 384.964 269.739C384.964 277.574 391.303 283.926 399.121 283.926Z" fill="#A0616A"/>
<path d="M420.639 290.328C420.639 290.328 394.701 285.707 377.985 291.483L382.884 330.471L381.732 336.825L416.316 335.67L414.01 329.316L420.639 290.328Z" fill="#A0616A"/>
<path d="M402.614 332.4C396.642 332.329 390.679 331.95 384.746 331.265C383.528 331.131 382.404 330.544 381.597 329.619C380.79 328.694 380.358 327.5 380.388 326.272L380.808 308.039L380.857 307.968C385.869 300.694 383.428 295.381 381.55 292.521C381.153 291.916 380.943 291.209 380.943 290.486C380.655 290.084 380.59 290.72 380.769 290.267C380.858 290.042 381.001 289.843 381.186 289.688C381.371 289.533 381.591 289.427 381.828 289.379L384.689 288.806C385.032 288.737 385.389 288.796 385.692 288.971C385.996 289.147 386.225 289.427 386.337 289.76C387.298 292.634 391.045 301.884 399.632 301.882C406.805 301.88 409.482 291.71 409.643 289.359C409.669 288.995 409.832 288.654 410.098 288.406C410.365 288.157 410.715 288.018 411.079 288.018H414.653C414.88 288.012 415.104 288.058 415.31 288.152C415.516 288.245 415.699 288.384 415.844 288.557C416.022 288.778 416.131 289.048 416.156 289.331C416.181 289.613 416.121 289.898 415.985 290.147C411.906 297.661 417.867 309.551 417.928 309.67L417.966 309.745L416.284 327.243C416.182 328.269 415.762 329.238 415.082 330.012C414.403 330.787 413.498 331.329 412.495 331.561C409.894 332.174 406.379 332.4 402.614 332.4Z" fill="#CCCCCC"/>
<path d="M369.699 373C365.826 373.001 362.279 372.572 359.462 371.562C356.114 370.361 354.011 368.419 353.212 365.789C352.835 364.67 352.722 363.479 352.883 362.309C353.043 361.139 353.473 360.022 354.138 359.047C359.092 351.613 376.284 349.518 378.591 349.269L379.813 339.064C379.958 337.887 380.522 336.801 381.401 336.006C382.281 335.212 383.417 334.762 384.601 334.74L413.555 334.287C414.718 334.26 415.852 334.651 416.75 335.391C417.649 336.131 418.253 337.169 418.452 338.317L420.097 347.386L401.112 356.61L403.982 364.665L403.795 364.79C398.238 368.503 382.258 372.999 369.699 373Z" fill="#2F2E41"/>
<path d="M417.469 346.067C417.469 346.067 443.984 342.601 442.254 356.463C440.525 370.326 420.351 380.145 389.801 356.463L393.26 349.532C393.26 349.532 410.552 354.153 417.469 350.687V346.067Z" fill="#2F2E41"/>
<path d="M393.836 351.265C393.836 351.265 393.836 344.334 388.072 344.911C382.308 345.489 371.933 346.067 371.933 346.067C371.933 346.067 368.474 348.377 373.085 349.532C377.697 350.687 391.53 356.463 391.53 356.463L393.836 351.265Z" fill="#A0616A"/>
<path d="M403.635 350.11C403.635 350.11 403.635 343.179 409.399 343.756C415.163 344.334 425.539 344.911 425.539 344.911C425.539 344.911 428.997 347.222 424.386 348.377C419.775 349.532 405.941 355.308 405.941 355.308L403.635 350.11Z" fill="#A0616A"/>
<path d="M438.174 348.797L429.574 318.919C429.574 318.919 427.844 308.523 426.115 298.703C424.386 288.884 418.045 290.039 418.045 290.039L416.893 290.617V306.212L418.045 320.652L429.554 352.365C429.215 353.465 429.195 354.638 429.497 355.749C429.799 356.859 430.41 357.861 431.259 358.636C432.107 359.412 433.159 359.93 434.29 360.129C435.422 360.328 436.586 360.2 437.648 359.761C438.709 359.321 439.624 358.588 440.286 357.647C440.947 356.706 441.328 355.596 441.383 354.446C441.438 353.296 441.166 352.155 440.598 351.154C440.029 350.154 439.189 349.336 438.174 348.797Z" fill="#A0616A"/>
<path d="M380.002 291.194C380.002 291.194 373.662 290.039 371.933 299.859C370.203 309.678 368.474 320.075 368.474 320.075L359.873 349.952C358.86 350.492 358.02 351.309 357.453 352.309C356.886 353.309 356.614 354.45 356.67 355.599C356.725 356.747 357.106 357.856 357.767 358.797C358.428 359.737 359.342 360.469 360.403 360.908C361.464 361.347 362.627 361.475 363.758 361.276C364.888 361.077 365.939 360.561 366.787 359.786C367.636 359.011 368.247 358.011 368.549 356.901C368.851 355.792 368.832 354.619 368.494 353.52L380.002 321.807L381.155 307.367V293.064C381.155 292.676 381.047 292.295 380.844 291.965C380.64 291.635 380.349 291.368 380.002 291.194Z" fill="#A0616A"/>
<path d="M385.107 261.024C390.636 264.406 396.869 266.464 403.321 267.038L401.402 264.733C402.799 265.251 404.27 265.543 405.76 265.6C406.505 265.622 407.246 265.468 407.921 265.151C408.597 264.834 409.189 264.363 409.65 263.775C410.027 263.165 410.251 262.473 410.302 261.757C410.354 261.041 410.232 260.324 409.947 259.666C409.362 258.353 408.452 257.212 407.302 256.351C405.264 254.736 402.86 253.651 400.302 253.193C397.744 252.735 395.114 252.918 392.644 253.726C390.95 254.233 389.432 255.209 388.266 256.54C387.692 257.211 387.294 258.014 387.106 258.877C386.919 259.74 386.949 260.636 387.192 261.485" fill="#2F2E41"/>
<path d="M400.526 246.236C396.061 241.699 390.657 238.197 384.696 235.978C380.87 234.558 376.704 233.68 372.704 234.487C368.703 235.294 364.92 238.067 363.804 242C362.891 245.216 363.834 248.679 365.25 251.707C366.666 254.735 368.557 257.542 369.703 260.683C370.871 263.887 371.223 267.334 370.725 270.709C370.227 274.084 368.896 277.281 366.853 280.01C364.809 282.739 362.118 284.913 359.023 286.336C355.929 287.758 352.528 288.383 349.131 288.155C353.062 288.683 356.685 290.534 360.527 291.519C364.369 292.504 368.904 292.438 371.759 289.679C374.78 286.761 374.841 282.016 374.694 277.814C374.477 271.567 374.26 265.321 374.043 259.074C373.932 255.888 373.838 252.6 374.984 249.627C376.131 246.654 378.856 244.05 382.037 244.077C384.447 244.097 386.581 245.561 388.515 247.004C390.448 248.447 392.494 249.987 394.896 250.202C397.297 250.417 400.039 248.636 399.859 246.227" fill="#2F2E41"/>
<path d="M274.082 351.758H20.4625C15.0374 351.752 9.83623 349.59 6.0001 345.746C2.16397 341.902 0.00613447 336.69 0 331.254V20.5048C0.00613295 15.0685 2.16397 9.85657 6.0001 6.01251C9.83623 2.16845 15.0374 0.00614563 20.4625 0H274.082C279.507 0.00615784 284.708 2.16846 288.544 6.01252C292.381 9.85658 294.538 15.0685 294.544 20.5048V331.254C294.538 336.69 292.381 341.902 288.544 345.746C284.708 349.59 279.507 351.752 274.082 351.758Z" fill="#E6E6E6"/>
<path d="M266.589 337.896H27.9558C25.4343 337.893 23.0168 336.888 21.2338 335.101C19.4509 333.315 18.4479 330.892 18.4451 328.366V41.876C18.4479 39.3492 19.4509 36.9268 21.2338 35.1401C23.0168 33.3534 25.4343 32.3484 27.9558 32.3456H266.589C269.11 32.3484 271.528 33.3534 273.311 35.1401C275.094 36.9268 276.097 39.3492 276.099 41.876V328.366C276.097 330.892 275.094 333.315 273.311 335.101C271.528 336.888 269.11 337.893 266.589 337.896Z" fill="white"/>
<path d="M190.923 134.272C187.047 124.972 181.025 117.215 172.285 112.073C163.102 106.671 152.62 102.172 142.059 100.549C131.487 98.9842 120.708 99.5887 110.377 102.326C105.397 103.619 99.9063 105.12 95.7059 108.215C91.6905 111.173 88.9399 116.04 86.7007 120.412C84.5552 124.601 83.2178 129.213 84.379 133.904C85.4491 138.227 88.4412 141.828 91.8633 144.537C94.9204 146.957 99.1959 150.161 103.285 148.661C103.517 148.576 103.739 148.464 103.945 148.327C111.007 150.48 118.028 147.349 125.277 144.897C129.683 143.407 134.113 142.654 138.537 144.513C142.896 146.346 146.445 149.946 149.045 153.826C151.519 157.517 153.148 161.707 155.862 165.245C157.212 167.067 158.928 168.584 160.9 169.7C162.871 170.816 165.055 171.505 167.308 171.722C176.068 172.704 187.693 171.8 192.739 163.489C198.116 154.634 194.598 143.087 190.923 134.272ZM101.513 120.672C102.812 120.819 104.111 120.967 105.411 121.114C102.935 121.561 100.619 122.649 98.6936 124.27C97.9611 124.89 97.2818 125.57 96.6629 126.303C96.6807 126.244 96.6911 126.187 96.7102 126.127C97.0923 124.935 97.7162 123.835 98.5426 122.897C99.3691 121.958 100.38 121.2 101.513 120.672ZM145.128 128.985C145.416 129.202 145.752 129.346 146.108 129.404C146.15 129.411 146.191 129.419 146.233 129.426C146.474 129.565 146.716 129.702 146.959 129.839C146.932 129.877 146.911 129.919 146.885 129.958C146.291 129.897 145.697 129.838 145.103 129.778C145.145 129.516 145.153 129.249 145.128 128.985ZM160.85 147.615C160.719 147.754 160.603 147.907 160.505 148.072C160.446 147.987 160.388 147.902 160.33 147.817C160.491 147.722 160.667 147.653 160.85 147.615ZM171.004 158.627C171.593 158.705 172.181 158.782 172.77 158.86C172.66 159.051 172.58 159.258 172.53 159.473C172.113 159.487 171.693 159.494 171.271 159.496L171.004 158.627ZM179.531 153.605C179.768 153.565 180.005 153.524 180.242 153.483C180.614 153.423 180.969 153.282 181.281 153.069C181.282 153.111 181.286 153.153 181.287 153.195C181.292 153.337 181.306 153.515 181.324 153.717C181.266 153.819 181.207 153.92 181.145 154.021C180.607 153.882 180.069 153.744 179.531 153.605V153.605ZM149.249 122.223C148.966 121.987 148.646 121.799 148.303 121.665C146.635 121.02 144.927 120.485 143.19 120.063C142.93 119.818 142.676 119.567 142.428 119.309C143.895 119.599 145.345 119.968 146.772 120.417C148.602 121.004 150.396 121.696 152.148 122.488C151.18 122.38 150.214 122.292 149.249 122.223ZM165.561 123.318C164.71 122.785 163.854 122.262 162.992 121.749C163.875 122.248 164.746 122.77 165.605 123.318L165.561 123.318ZM183.15 131.362C180.867 128.564 178.343 125.973 175.606 123.619C175.817 123.133 175.924 122.607 175.918 122.076C178.786 124.785 181.225 127.917 183.15 131.362V131.362ZM150.348 108.465C149.987 108.382 149.626 108.298 149.265 108.216C145.836 107.44 142.343 106.605 138.818 105.896C139.007 105.918 139.196 105.936 139.385 105.96C143.108 106.455 146.778 107.293 150.348 108.465Z" fill="#FFD5CD"/>
<path d="M147.272 22.2376C151.092 22.2376 154.189 19.1344 154.189 15.3064C154.189 11.4784 151.092 8.37524 147.272 8.37524C143.452 8.37524 140.355 11.4784 140.355 15.3064C140.355 19.1344 143.452 22.2376 147.272 22.2376Z" fill="white"/>
<path d="M76.9263 287.883C76.9239 287.883 76.9212 287.883 76.9184 287.883C76.664 287.884 76.4183 287.976 76.2251 288.142L69.516 294.364V288.295C69.516 288.241 69.5054 288.188 69.4848 288.138C69.4641 288.088 69.4338 288.042 69.3957 288.004C69.3575 287.966 69.3122 287.935 69.2623 287.915C69.2124 287.894 69.1589 287.883 69.1049 287.883H67.4438C67.3898 287.883 67.3364 287.894 67.2865 287.915C67.2366 287.935 67.1913 287.966 67.1531 288.004C67.1149 288.042 67.0846 288.088 67.064 288.138C67.0434 288.188 67.0327 288.241 67.0328 288.295V302.84C67.0327 302.894 67.0434 302.947 67.064 302.997C67.0846 303.047 67.1149 303.093 67.1531 303.131C67.1913 303.169 67.2366 303.2 67.2865 303.22C67.3364 303.241 67.3898 303.252 67.4438 303.252H69.0967C69.2058 303.252 69.3104 303.208 69.3876 303.131C69.4647 303.054 69.5081 302.949 69.5081 302.84V296.812L76.2168 303.001C76.4109 303.165 76.6569 303.254 76.9105 303.252C77.1992 303.256 77.4777 303.145 77.6848 302.944C77.8919 302.742 78.0106 302.466 78.0149 302.177V288.99C78.016 288.846 77.9887 288.703 77.9346 288.569C77.8805 288.435 77.8006 288.313 77.6995 288.211C77.5984 288.108 77.4781 288.026 77.3454 287.97C77.2127 287.914 77.0703 287.884 76.9263 287.883Z" fill="#FFD5CD"/>
<path d="M228.673 287.924L228.665 287.924H227.052C226.998 287.924 226.945 287.934 226.895 287.955C226.845 287.976 226.8 288.006 226.761 288.044C226.723 288.083 226.693 288.128 226.672 288.178C226.652 288.228 226.641 288.282 226.641 288.336V294.372L219.932 288.182C219.736 288.015 219.488 287.924 219.231 287.924V287.883C219.087 287.882 218.944 287.91 218.81 287.964C218.677 288.018 218.555 288.098 218.453 288.199C218.35 288.301 218.269 288.421 218.213 288.554C218.157 288.687 218.127 288.83 218.126 288.974C218.126 288.98 218.126 288.985 218.126 288.99V302.193C218.126 302.485 218.242 302.764 218.447 302.97C218.653 303.176 218.932 303.292 219.223 303.292L219.231 303.292C219.487 303.295 219.736 303.206 219.932 303.042L226.641 296.812V302.88C226.641 302.934 226.652 302.988 226.672 303.038C226.693 303.088 226.723 303.133 226.761 303.171C226.8 303.21 226.845 303.24 226.895 303.261C226.945 303.282 226.998 303.292 227.052 303.292H228.665C228.719 303.293 228.773 303.284 228.823 303.264C228.873 303.244 228.919 303.215 228.958 303.177C228.997 303.14 229.028 303.095 229.05 303.045C229.072 302.996 229.083 302.942 229.084 302.888V288.336C229.084 288.282 229.074 288.228 229.053 288.178C229.032 288.128 229.002 288.083 228.964 288.044C228.926 288.006 228.88 287.976 228.831 287.955C228.781 287.934 228.727 287.924 228.673 287.924Z" fill="#FFD5CD"/>
<path d="M145.313 288.207H142.031C141.14 288.207 140.418 288.93 140.418 289.823V301.894C140.418 302.787 141.14 303.51 142.031 303.51H145.313C146.203 303.51 146.925 302.787 146.925 301.894V289.823C146.925 288.93 146.203 288.207 145.313 288.207Z" fill="#FFD5CD"/>
<path d="M154.126 288.207H150.82C150.392 288.207 149.982 288.377 149.68 288.68C149.377 288.983 149.207 289.394 149.207 289.823V301.894C149.207 302.323 149.377 302.734 149.68 303.037C149.982 303.34 150.392 303.51 150.82 303.51H154.126C154.554 303.51 154.964 303.34 155.267 303.037C155.569 302.734 155.739 302.323 155.739 301.894V289.823C155.739 289.394 155.569 288.983 155.267 288.68C154.964 288.377 154.554 288.207 154.126 288.207Z" fill="#FFD5CD"/>
<path d="M243.764 271.198H52.3933C52.0023 271.195 51.6281 271.038 51.3524 270.761C51.0767 270.483 50.9219 270.107 50.9219 269.715C50.9219 269.323 51.0767 268.947 51.3524 268.67C51.6281 268.392 52.0023 268.235 52.3933 268.232H243.764C243.959 268.231 244.152 268.269 244.333 268.343C244.513 268.417 244.677 268.526 244.815 268.664C244.954 268.801 245.063 268.965 245.138 269.146C245.213 269.326 245.252 269.52 245.252 269.715C245.252 269.91 245.213 270.104 245.138 270.284C245.063 270.465 244.954 270.629 244.815 270.766C244.677 270.904 244.513 271.013 244.333 271.087C244.152 271.161 243.959 271.199 243.764 271.198Z" fill="#FFD5CD"/>
<path d="M109.273 274.43C108.342 274.431 107.431 274.156 106.656 273.639C105.88 273.122 105.275 272.386 104.918 271.524C104.56 270.663 104.465 269.714 104.645 268.798C104.825 267.883 105.272 267.041 105.93 266.38C106.587 265.719 107.425 265.268 108.339 265.084C109.252 264.901 110.199 264.993 111.06 265.348C111.921 265.704 112.657 266.308 113.176 267.083C113.695 267.858 113.973 268.77 113.974 269.703V269.711C113.974 270.961 113.479 272.16 112.598 273.045C111.716 273.93 110.521 274.428 109.273 274.43Z" fill="#CCCCCC"/>
<path d="M107.875 271.981H51.5621C50.963 271.98 50.3888 271.741 49.9655 271.316C49.5422 270.891 49.3045 270.315 49.3045 269.715C49.3045 269.115 49.5422 268.539 49.9655 268.114C50.3888 267.689 50.963 267.45 51.5621 267.449H107.875C108.189 267.45 108.49 267.575 108.712 267.797C108.934 268.02 109.059 268.322 109.059 268.636V270.794C109.059 271.108 108.934 271.41 108.712 271.633C108.49 271.855 108.189 271.98 107.875 271.981Z" fill="#CCCCCC"/>
<path d="M153.329 206.655C150.065 206.564 146.003 206.45 142.875 204.16C141.944 203.45 141.178 202.545 140.632 201.507C140.087 200.469 139.774 199.325 139.716 198.153C139.66 197.321 139.796 196.486 140.115 195.715C140.433 194.944 140.925 194.258 141.553 193.709C143.187 192.326 145.573 192 148.145 192.758L145.48 173.245L147.436 172.977L150.569 195.916L148.936 195.165C147.042 194.295 144.443 193.853 142.827 195.22C142.43 195.577 142.121 196.022 141.924 196.518C141.727 197.015 141.646 197.55 141.689 198.083C141.737 198.955 141.972 199.807 142.377 200.58C142.783 201.352 143.35 202.029 144.04 202.562C146.474 204.345 149.712 204.575 153.384 204.678L153.329 206.655Z" fill="#3F3D56"/>
<path d="M135.807 174.928H125.174V176.906H135.807V174.928Z" fill="#3F3D56"/>
<path d="M169.37 174.928H158.737V176.906H169.37V174.928Z" fill="#3F3D56"/>
<path d="M106.7 147.609C98.1377 146.631 91.5061 138.409 90.7777 130.068C89.9112 120.144 95.6785 110.719 103.591 105.15C111.865 99.3267 122.174 96.8948 132.149 96.3594C151.607 95.3891 170.73 101.705 185.799 114.079C193.273 120.3 200.253 128.224 202.899 137.795C205.196 146.107 203.327 155.523 196.655 161.344C195.005 162.771 193.077 163.839 190.994 164.482C188.911 165.125 186.718 165.328 184.553 165.078C179.376 164.54 174.6 161.812 170.466 158.8C162.424 152.941 155.822 144.778 146.024 141.716C138.839 139.471 129.517 141.447 125.126 147.957C124.13 149.448 123.485 151.145 123.238 152.922C123.148 153.301 123.204 153.7 123.396 154.039C123.588 154.378 123.901 154.631 124.272 154.747C124.651 154.849 125.055 154.798 125.396 154.604C125.737 154.41 125.987 154.089 126.094 153.711C127.247 145.511 137.308 142.451 144.369 144.324C154.663 147.054 161.574 156.259 170.02 162.108C174.461 165.183 179.511 167.641 184.958 168.083C189.653 168.452 194.313 167.017 197.991 164.07C205.207 158.361 207.966 148.541 206.371 139.699C204.523 129.461 197.646 120.686 190.101 113.892C174.804 100.265 154.945 92.9135 134.481 93.3028C124.043 93.543 113.153 95.7022 104.161 101.23C95.4384 106.593 88.6969 115.564 87.8158 125.992C87.0402 135.17 91.9546 144.771 100.39 148.792C102.379 149.736 104.512 150.339 106.7 150.577C108.591 150.793 108.575 147.823 106.7 147.609L106.7 147.609Z" fill="#3F3D56"/>
</g>
<defs>
<clipPath id="clip0">
<rect width="492" height="373" fill="white"/>
</clipPath>
</defs>
</svg>
